<?xml version="1.0" encoding="utf-8"?>
<!-- Generator: Adobe Illustrator 16.0.0, SVG Export Plug-In . SVG Version: 6.00 Build 0)  -->
<!DOCTYPE svg PUBLIC "-//W3C//DTD SVG 1.1//EN" "http://www.w3.org/Graphics/SVG/1.1/DTD/svg11.dtd">
<svg version="1.1" id="Layer_150" xmlns="http://www.w3.org/2000/svg" xmlns:xlink="http://www.w3.org/1999/xlink" x="0px" y="0px"
	 width="145.5px" height="150.368px" viewBox="0 0 145.5 150.368" enable-background="new 0 0 145.5 150.368" xml:space="preserve">
<g>
	<path fill="#3021EC" d="M143.5,141.368H61.674c-0.829,0-1.5-0.672-1.5-1.5s0.671-1.5,1.5-1.5H143.5c0.828,0,1.5,0.672,1.5,1.5
		S144.328,141.368,143.5,141.368z"/>
</g>
<g>
	<path fill="#3021EC" d="M52.174,141.368H9.166c-0.829,0-1.5-0.672-1.5-1.5s0.671-1.5,1.5-1.5h43.008c0.829,0,1.5,0.672,1.5,1.5
		S53.002,141.368,52.174,141.368z"/>
</g>
<g>
	<path fill="#3021EC" d="M26.5,150.368h-25c-0.829,0-1.5-0.672-1.5-1.5s0.671-1.5,1.5-1.5h25c0.829,0,1.5,0.672,1.5,1.5
		S27.329,150.368,26.5,150.368z"/>
</g>
<g>
	<path fill="#3021EC" d="M100.111,123.368H51.348c-0.829,0-1.5-0.672-1.5-1.5V40.594c0-4.412,3.59-8.002,8.002-8.002h35.759
		c4.412,0,8.002,3.59,8.002,8.002v81.274C101.611,122.696,100.939,123.368,100.111,123.368z M52.848,120.368h45.765V40.594
		c0-2.758-2.244-5.002-5.002-5.002H57.85c-2.758,0-5.002,2.244-5.002,5.002V120.368z"/>
</g>
<g>
	<polyline fill="#3021EC" points="61.101,34.092 61.101,24.339 90.359,24.339 90.359,34.092 	"/>
	<path fill="#3021EC" d="M90.359,35.592c-0.828,0-1.5-0.671-1.5-1.5v-8.253H62.601v8.253c0,0.829-0.671,1.5-1.5,1.5
		s-1.5-0.671-1.5-1.5v-9.753c0-0.829,0.671-1.5,1.5-1.5h29.258c0.828,0,1.5,0.671,1.5,1.5v9.753
		C91.859,34.921,91.188,35.592,90.359,35.592z"/>
</g>
<g>
	<path fill="#3021EC" d="M80.605,25.839c-0.828,0-1.5-0.671-1.5-1.5V6.333H62.601v6.753h8.253c0.828,0,1.5,0.671,1.5,1.5v9.753
		c0,0.829-0.672,1.5-1.5,1.5c-0.829,0-1.5-0.671-1.5-1.5v-8.253h-8.253c-0.829,0-1.5-0.671-1.5-1.5V4.833c0-0.829,0.671-1.5,1.5-1.5
		h19.506c0.828,0,1.5,0.671,1.5,1.5v19.506C82.105,25.168,81.436,25.839,80.605,25.839z"/>
</g>
<g>
	<path fill="#3021EC" d="M74.813,105.668c-6.206,0-11.253-5.049-11.253-11.254v-9.752c0-6.205,5.048-11.253,11.253-11.253
		c6.205,0,11.252,5.048,11.252,11.253v9.752C86.064,100.62,81.018,105.668,74.813,105.668z M74.813,76.409
		c-4.551,0-8.253,3.702-8.253,8.254v9.752c0,4.551,3.702,8.254,8.253,8.254c4.551,0,8.252-3.703,8.252-8.254v-9.752
		C83.064,80.111,79.361,76.409,74.813,76.409z"/>
</g>
<g>
	<path fill="#3021EC" d="M79.688,76.229c-0.828,0-1.5-0.672-1.5-1.5c0-1.862-1.515-3.377-3.375-3.377
		c-1.861,0-3.376,1.515-3.376,3.377c0,0.828-0.672,1.5-1.5,1.5s-1.5-0.672-1.5-1.5c0-3.517,2.861-6.377,6.376-6.377
		c3.515,0,6.375,2.86,6.375,6.377C81.188,75.558,80.516,76.229,79.688,76.229z"/>
</g>
<g>
	<path fill="#3021EC" d="M69.935,75.326c-0.826,0-1.495-0.667-1.5-1.491c-0.008-0.569-0.212-3.385-3.376-3.385
		c-0.829,0-1.5-0.672-1.5-1.5c0-0.828,0.671-1.5,1.5-1.5c4.678,0,6.377,3.813,6.377,6.376
		C71.436,74.654,70.764,75.326,69.935,75.326z"/>
</g>
<g>
	<path fill="#3021EC" d="M79.688,75.326c-0.828,0-1.5-0.672-1.5-1.5c0-2.563,1.699-6.376,6.377-6.376c0.828,0,1.5,0.672,1.5,1.5
		c0,0.828-0.672,1.5-1.5,1.5c-3.281,0-3.377,3.03-3.377,3.376C81.188,74.654,80.516,75.326,79.688,75.326z"/>
</g>
<g>
	<path fill="#3021EC" d="M74.813,105.668c-0.828,0-1.5-0.672-1.5-1.5V84.663c0-0.828,0.672-1.5,1.5-1.5s1.5,0.672,1.5,1.5v19.506
		C76.313,104.997,75.641,105.668,74.813,105.668z"/>
</g>
<g>
	<path fill="#3021EC" d="M84.564,86.163c-0.385,0-0.769-0.146-1.062-0.439c-0.586-0.586-0.586-1.535,0-2.121l4.876-4.877
		c0.586-0.586,1.535-0.586,2.121,0s0.586,1.535,0,2.121l-4.876,4.877C85.332,86.016,84.948,86.163,84.564,86.163z"/>
</g>
<g>
	<path fill="#3021EC" d="M89.439,91.038h-4.875c-0.828,0-1.5-0.672-1.5-1.5s0.672-1.5,1.5-1.5h4.875c0.828,0,1.5,0.672,1.5,1.5
		S90.27,91.038,89.439,91.038z"/>
</g>
<g>
	<path fill="#3021EC" d="M89.439,100.792c-0.383,0-0.768-0.146-1.061-0.439l-4.876-4.876c-0.586-0.586-0.586-1.535,0-2.121
		s1.535-0.586,2.121,0l4.876,4.876c0.586,0.586,0.586,1.535,0,2.121C90.208,100.645,89.824,100.792,89.439,100.792z"/>
</g>
<g>
	<path fill="#3021EC" d="M65.059,86.163c-0.384,0-0.768-0.146-1.061-0.439l-4.876-4.877c-0.586-0.586-0.586-1.535,0-2.121
		s1.535-0.586,2.121,0l4.876,4.877c0.586,0.586,0.586,1.535,0,2.121C65.826,86.016,65.442,86.163,65.059,86.163z"/>
</g>
<g>
	<path fill="#3021EC" d="M65.059,91.038h-4.876c-0.829,0-1.5-0.672-1.5-1.5s0.671-1.5,1.5-1.5h4.876c0.829,0,1.5,0.672,1.5,1.5
		S65.887,91.038,65.059,91.038z"/>
</g>
<g>
	<path fill="#3021EC" d="M60.182,100.792c-0.384,0-0.768-0.146-1.061-0.439c-0.586-0.586-0.586-1.535,0-2.121l4.876-4.876
		c0.586-0.586,1.535-0.586,2.121,0s0.586,1.535,0,2.121l-4.876,4.876C60.95,100.645,60.566,100.792,60.182,100.792z"/>
</g>
<g>
	<path fill="#3021EC" d="M39.097,126.702c-1.13,0-2.193-0.438-2.992-1.238l-3.865-3.864c-1.65-1.649-1.65-4.335,0-5.985
		c0.799-0.8,1.862-1.24,2.993-1.24s2.194,0.44,2.993,1.24l3.864,3.864c1.65,1.649,1.65,4.335,0,5.985
		C41.29,126.263,40.227,126.702,39.097,126.702z M35.233,117.374c-0.33,0-0.639,0.129-0.872,0.36c-0.48,0.479-0.48,1.263,0,1.743
		l3.864,3.863c0.465,0.466,1.278,0.467,1.744,0c0.48-0.479,0.48-1.262,0-1.742l-3.864-3.864
		C35.872,117.5,35.563,117.374,35.233,117.374z"/>
</g>
<g>
	<path fill="#3021EC" d="M17.233,9c-2.481,0-4.5-2.019-4.5-4.5s2.019-4.5,4.5-4.5s4.5,2.019,4.5,4.5S19.715,9,17.233,9z M17.233,3
		c-0.827,0-1.5,0.673-1.5,1.5s0.673,1.5,1.5,1.5s1.5-0.673,1.5-1.5S18.061,3,17.233,3z"/>
</g>
<g>
	<path fill="#3021EC" d="M100.111,53.473H52.243c-0.829,0-1.5-0.671-1.5-1.5c0-0.829,0.671-1.5,1.5-1.5h47.868
		c0.828,0,1.5,0.671,1.5,1.5C101.611,52.802,100.939,53.473,100.111,53.473z"/>
</g>
<g opacity="0.1">
	<g>
		<path fill="#3021EC" d="M143.896,77.083L89.738,22.924c-2.137-2.137-5.6-2.136-7.736,0c-2.136,2.136-2.137,5.6,0,7.737
			l3.432,3.431h8.68c3.313,0,6,2.686,6,6v8.679l36.049,36.048c2.137,2.137,5.602,2.139,7.736,0
			C146.034,82.685,146.034,79.219,143.896,77.083z"/>
	</g>
	<g>
		<path fill="#3021EC" d="M3.181,36.948c-2.137,2.137-2.135,5.6,0,7.736L37.997,79.5c2.138,2.139,5.599,2.139,7.736,0
			c2.138-2.137,2.139-5.601,0.001-7.735L10.918,36.948C8.782,34.812,5.318,34.811,3.181,36.948z"/>
	</g>
	<g>
		<path fill="#3021EC" d="M22.524,40.815c-2.136,2.137-5.601,2.138-7.737,0l30.948,30.949c-2.135-2.136-2.135-5.602,0.001-7.738
			c1.211-1.212,2.849-1.711,4.431-1.548v-1.757L22.523,33.079C24.661,35.216,24.661,38.68,22.524,40.815z"/>
	</g>
	<g>
		<path fill="#3021EC" d="M124.557,80.952c2.137-2.138,5.601-2.137,7.734-0.002l-23.209-23.208c2.135,2.134,2.136,5.599-0.001,7.735
			c-2.138,2.138-5.601,2.136-7.733,0.001l23.207,23.209C122.42,86.551,122.419,83.088,124.557,80.952z"/>
	</g>
	<g>
		<path fill="#3021EC" d="M57.124,34.092H69.96L45.252,9.384c-6.41-6.41-16.801-6.41-23.211,0c-6.411,6.411-6.411,16.802,0,23.211
			L50.166,60.72V45.868c0-1.196,0.354-2.308,0.958-3.244v-2.532C51.124,36.778,53.811,34.092,57.124,34.092z"/>
	</g>
	<g>
		<path fill="#3021EC" d="M104.729,115.286c6.41,6.408,16.801,6.41,23.213,0c6.41-6.41,6.41-16.804,0-23.213l-3.387-3.387
			l-24.443-24.442v46.424L104.729,115.286z"/>
	</g>
</g>
</svg>
