<?xml version="1.0" encoding="utf-8"?>
<!-- Generator: Adobe Illustrator 16.0.0, SVG Export Plug-In . SVG Version: 6.00 Build 0)  -->
<!DOCTYPE svg PUBLIC "-//W3C//DTD SVG 1.1//EN" "http://www.w3.org/Graphics/SVG/1.1/DTD/svg11.dtd">
<svg version="1.1" id="Layer_150" xmlns="http://www.w3.org/2000/svg" xmlns:xlink="http://www.w3.org/1999/xlink" x="0px" y="0px"
	 width="145.121px" height="155px" viewBox="0 0 145.121 155" enable-background="new 0 0 145.121 155" xml:space="preserve">
<g>
	<path fill="#3021EC" d="M143.621,146h-31.826c-0.828,0-1.5-0.672-1.5-1.5s0.672-1.5,1.5-1.5h31.826c0.828,0,1.5,0.672,1.5,1.5
		S144.449,146,143.621,146z"/>
</g>
<g>
	<path fill="#3021EC" d="M102.294,146H9.287c-0.829,0-1.5-0.672-1.5-1.5s0.671-1.5,1.5-1.5h93.007c0.828,0,1.5,0.672,1.5,1.5
		S103.123,146,102.294,146z"/>
</g>
<g>
	<path fill="#3021EC" d="M26.62,155h-25c-0.829,0-1.5-0.672-1.5-1.5s0.671-1.5,1.5-1.5h25c0.829,0,1.5,0.672,1.5,1.5
		S27.448,155,26.62,155z"/>
</g>
<g>
	<path fill="#3021EC" d="M102.779,118.074H34.345c-4.108,0-7.451-3.344-7.451-7.451V24.335c0-4.108,3.342-7.451,7.451-7.451h68.435
		c4.108,0,7.451,3.342,7.451,7.451v24.422c0,0.829-0.672,1.5-1.5,1.5s-1.5-0.671-1.5-1.5V24.335c0-2.454-1.997-4.451-4.451-4.451
		H34.345c-2.454,0-4.451,1.997-4.451,4.451v86.288c0,2.454,1.997,4.451,4.451,4.451h68.435c2.454,0,4.451-1.997,4.451-4.451v-37.25
		c0-0.828,0.672-1.5,1.5-1.5s1.5,0.672,1.5,1.5v37.25C110.23,114.73,106.888,118.074,102.779,118.074z"/>
</g>
<g>
	<path fill="#3021EC" d="M93.854,127H25.418c-4.108,0-7.451-3.343-7.451-7.451V33.262c0-4.108,3.342-7.451,7.451-7.451h1.984
		c0.829,0,1.5,0.671,1.5,1.5s-0.671,1.5-1.5,1.5h-1.984c-2.454,0-4.451,1.997-4.451,4.451v86.287c0,2.454,1.997,4.451,4.451,4.451
		h68.435c2.454,0,4.45-1.997,4.45-4.451v-1.982c0-0.828,0.672-1.5,1.5-1.5c0.827,0,1.5,0.672,1.5,1.5v1.982
		C101.304,123.657,97.962,127,93.854,127z"/>
</g>
<g>
	<g>
		<path fill="#3021EC" d="M86.689,96.091c-0.384,0-0.768-0.146-1.061-0.438L73.005,83.027c-0.281-0.281-0.439-0.663-0.439-1.062
			c0-0.397,0.158-0.778,0.439-1.061l31.56-31.559c0.563-0.563,1.56-0.563,2.121,0L119.31,61.97c0.281,0.281,0.439,0.663,0.439,1.061
			c0,0.398-0.158,0.779-0.439,1.061L87.75,95.65C87.457,95.943,87.074,96.091,86.689,96.091z M76.187,81.967L86.689,92.47
			l29.438-29.438L105.625,52.53L76.187,81.967z"/>
	</g>
	<g>
		<path fill="#3021EC" d="M78.274,100.299c-0.397,0-0.778-0.158-1.062-0.439l-8.416-8.416c-0.586-0.586-0.586-1.534,0-2.12
			l6.312-6.313c0.586-0.586,1.535-0.586,2.121,0c0.586,0.587,0.586,1.535,0,2.121l-5.251,5.251l6.295,6.295l5.251-5.252
			c0.586-0.586,1.535-0.586,2.121,0s0.586,1.535,0,2.121l-6.313,6.313C79.054,100.141,78.671,100.299,78.274,100.299z"/>
	</g>
	<g>
		<polygon fill="#3021EC" points="69.157,99.5 71.962,92.486 76.521,97.046 		"/>
		<path fill="#3021EC" d="M69.157,101c-0.406,0-0.803-0.165-1.091-0.471c-0.401-0.426-0.519-1.045-0.301-1.586l2.805-7.014
			c0.188-0.47,0.597-0.813,1.091-0.914c0.494-0.101,1.005,0.053,1.362,0.409l4.559,4.56c0.369,0.367,0.52,0.899,0.399,1.406
			c-0.12,0.506-0.492,0.914-0.985,1.077l-7.363,2.454C69.476,100.975,69.316,101,69.157,101z M72.51,95.156l-0.759,1.898
			l1.993-0.664L72.51,95.156z"/>
	</g>
	<g>
		<path fill="#3021EC" d="M125.262,53.213l-7.013,9.819l-12.625-12.624l9.818-7.013C115.443,43.395,124.912,44.096,125.262,53.213z"
			/>
		<path fill="#3021EC" d="M118.25,64.532c-0.396,0-0.778-0.157-1.062-0.439l-12.624-12.624c-0.313-0.312-0.471-0.745-0.436-1.184
			c0.037-0.439,0.266-0.841,0.623-1.097l9.818-7.013c0.285-0.204,0.641-0.299,0.982-0.275c3.736,0.277,10.889,2.986,11.207,11.257
			c0.013,0.332-0.086,0.659-0.278,0.929l-7.013,9.819c-0.256,0.359-0.657,0.587-1.098,0.624
			C118.332,64.531,118.291,64.532,118.25,64.532z M107.938,50.6l10.12,10.12l5.675-7.946c-0.521-6.218-6.133-7.555-7.889-7.821
			L107.938,50.6z"/>
	</g>
	<g>
		<path fill="#3021EC" d="M114.101,77.215c-0.385,0-0.768-0.146-1.061-0.439c-0.586-0.586-0.586-1.535,0-2.121l9.168-9.167
			c1.156-1.157,1.724-2.327,1.686-3.477c-0.063-1.818-1.589-3.173-1.604-3.187c-0.621-0.543-0.691-1.488-0.152-2.113
			c0.537-0.625,1.479-0.699,2.104-0.166c0.104,0.088,2.523,2.184,2.649,5.324c0.081,2.028-0.781,3.958-2.562,5.739l-9.168,9.167
			C114.869,77.068,114.484,77.215,114.101,77.215z"/>
	</g>
</g>
<g>
	<path fill="#3021EC" d="M80.468,47h-36c-0.829,0-1.5-0.671-1.5-1.5s0.671-1.5,1.5-1.5h36c0.828,0,1.5,0.671,1.5,1.5
		S81.296,47,80.468,47z"/>
</g>
<g>
	<path fill="#3021EC" d="M71.468,65h-27c-0.829,0-1.5-0.671-1.5-1.5s0.671-1.5,1.5-1.5h27c0.828,0,1.5,0.671,1.5,1.5
		S72.296,65,71.468,65z"/>
</g>
<g>
	<path fill="#3021EC" d="M62.468,83h-18c-0.829,0-1.5-0.672-1.5-1.5s0.671-1.5,1.5-1.5h18c0.829,0,1.5,0.672,1.5,1.5
		S63.296,83,62.468,83z"/>
</g>
<g>
	<path fill="#3021EC" d="M68.468,101h-24c-0.829,0-1.5-0.672-1.5-1.5s0.671-1.5,1.5-1.5h24c0.828,0,1.5,0.672,1.5,1.5
		S69.296,101,68.468,101z"/>
</g>
<g opacity="0.1">
	<g>
		<path fill="#3021EC" d="M141.757,70.271l-34.289-22.5v1.847l11.279,12.715l-3.332,3.376l20.506,13.455
			c2.455,1.611,5.754,0.928,7.365-1.528C144.898,75.182,144.214,71.883,141.757,70.271z"/>
	</g>
	<g>
		<path fill="#3021EC" d="M0.872,69.873c-1.611,2.457-0.926,5.754,1.53,7.365L18.468,87.78V75.058l-5.783-3.794
			c0.002,0.001,0.004,0.002,0.007,0.003l-4.454-2.922C5.782,66.733,2.483,67.417,0.872,69.873z"/>
	</g>
	<g>
		<path fill="#3021EC" d="M12.692,71.267l5.776,3.79v-3.77C16.757,72.381,14.499,72.449,12.692,71.267z"/>
	</g>
	<g>
		<path fill="#3021EC" d="M125.628,85.135c-2.445-1.611-3.129-4.904-1.52-7.359c1.611-2.456,4.909-3.14,7.363-1.529L115.416,65.71
			l-7.621,7.722L125.628,85.135z"/>
	</g>
	<g>
		<path fill="#3021EC" d="M107.794,73.432l-0.326,0.331v37.627l4.553,2.987c7.369,4.836,17.262,2.782,22.098-4.588
			c4.834-7.367,2.78-17.261-4.588-22.097l-3.9-2.56c0.002,0.002,0.004,0.005,0.008,0.007L107.794,73.432z"/>
	</g>
	<g>
		<path fill="#3021EC" d="M13.379,39.908c-4.835,7.369-2.782,17.261,4.587,22.096l0.502,0.33V35.022
			C16.489,36.217,14.731,37.846,13.379,39.908z"/>
	</g>
</g>
<g>
	<path fill="#3021EC" d="M130.333,7.5h-9.041c-0.828,0-1.5-0.671-1.5-1.5s0.672-1.5,1.5-1.5h9.041c0.828,0,1.5,0.671,1.5,1.5
		S131.162,7.5,130.333,7.5z"/>
</g>
<g>
	<path fill="#3021EC" d="M125.813,11.75c-0.828,0-1.5-0.671-1.5-1.5V1.5c0-0.829,0.672-1.5,1.5-1.5s1.5,0.671,1.5,1.5v8.75
		C127.313,11.079,126.642,11.75,125.813,11.75z"/>
</g>
</svg>
