<?xml version="1.0" encoding="utf-8"?>
<!-- Generator: Adobe Illustrator 16.0.0, SVG Export Plug-In . SVG Version: 6.00 Build 0)  -->
<!DOCTYPE svg PUBLIC "-//W3C//DTD SVG 1.1//EN" "http://www.w3.org/Graphics/SVG/1.1/DTD/svg11.dtd">
<svg version="1.1" id="Layer_150" xmlns="http://www.w3.org/2000/svg" xmlns:xlink="http://www.w3.org/1999/xlink" x="0px" y="0px"
	 width="145.977px" height="155.059px" viewBox="0 0 145.977 155.059" enable-background="new 0 0 145.977 155.059"
	 xml:space="preserve">
<g>
	<path fill="#3021EC" d="M144.477,146.059h-31.826c-0.827,0-1.5-0.672-1.5-1.5s0.673-1.5,1.5-1.5h31.826c0.828,0,1.5,0.672,1.5,1.5
		S145.305,146.059,144.477,146.059z"/>
</g>
<g>
	<path fill="#3021EC" d="M78.151,146.059H10.144c-0.829,0-1.5-0.672-1.5-1.5s0.671-1.5,1.5-1.5h68.007c0.828,0,1.5,0.672,1.5,1.5
		S78.979,146.059,78.151,146.059z"/>
</g>
<g>
	<path fill="#3021EC" d="M27.477,155.059h-25c-0.829,0-1.5-0.672-1.5-1.5s0.671-1.5,1.5-1.5h25c0.829,0,1.5,0.672,1.5,1.5
		S28.306,155.059,27.477,155.059z"/>
</g>
<g>
	<path fill="#3021EC" d="M128.102,122.305H15.866c-2.925,0-5.305-2.38-5.305-5.305V24.186c0-2.925,2.379-5.305,5.305-5.305h112.235
		c2.925,0,5.306,2.38,5.306,5.305V117C133.407,119.925,131.027,122.305,128.102,122.305z M15.866,21.881
		c-1.271,0-2.305,1.034-2.305,2.305V117c0,1.271,1.033,2.305,2.305,2.305h112.235c1.271,0,2.306-1.034,2.306-2.305V24.186
		c0-1.271-1.034-2.305-2.306-2.305H15.866z"/>
</g>
<g>
	<path fill="#3021EC" d="M131.907,33.295H12.063c-0.829,0-1.5-0.671-1.5-1.5s0.671-1.5,1.5-1.5h119.845c0.827,0,1.5,0.671,1.5,1.5
		S132.735,33.295,131.907,33.295z"/>
</g>
<g>
	<circle fill="#3021EC" cx="18.007" cy="26.184" r="1.545"/>
</g>
<g>
	<circle fill="#3021EC" cx="23.92" cy="26.184" r="1.546"/>
</g>
<g>
	<circle fill="#3021EC" cx="29.833" cy="26.184" r="1.545"/>
</g>
<g opacity="0.1">
	<g>
		<path fill="#3021EC" d="M11.229,63.41c-2.918,0-5.284,2.364-5.284,5.282s2.366,5.283,5.284,5.283h0.834V63.41H11.229z"/>
	</g>
	<g>
		<path fill="#3021EC" d="M118.889,15.854c0-2.92,2.367-5.285,5.283-5.285h5.285c2.918,0,5.285-2.364,5.285-5.282
			S132.375,0,129.458,0H55.481c-2.919,0-5.284,2.367-5.284,5.285s2.365,5.282,5.284,5.282h36.99c2.916,0,5.281,2.365,5.281,5.285
			c0,1.935-1.049,3.605-2.601,4.527h26.336C119.94,19.459,118.889,17.787,118.889,15.854z"/>
	</g>
	<g>
		<path fill="#3021EC" d="M144.651,36.988c0-8.19-6.215-14.93-14.186-15.764c0.871,0.697,1.44,1.758,1.44,2.961v28.349
			C139.172,51.088,144.651,44.68,144.651,36.988z"/>
	</g>
	<g>
		<path fill="#3021EC" d="M13.349,21.354C5.786,22.557,0,29.088,0,36.988c0,7.447,5.141,13.677,12.063,15.378V24.185
			C12.063,23.055,12.565,22.051,13.349,21.354z"/>
	</g>
</g>
<g>
	<path fill="#3021EC" d="M99.151,155.059h-17.5c-0.827,0-1.5-0.672-1.5-1.5s0.673-1.5,1.5-1.5h17.5c0.828,0,1.5,0.672,1.5,1.5
		S99.979,155.059,99.151,155.059z"/>
</g>
<g opacity="0.6">
	<path fill="#3021EC" d="M117.651,66c0,3.313-2.687,6-6,6h-78c-3.313,0-6-2.688-6-6V51c0-3.313,2.688-6,6-6h78c3.313,0,6,2.687,6,6
		V66z"/>
</g>
<g opacity="0.6">
	<path fill="#3021EC" d="M90.651,102c0,3.313-2.687,6-6,6h-15c-3.313,0-6-2.688-6-6V87c0-3.313,2.688-6,6-6h15c3.313,0,6,2.687,6,6
		V102z"/>
</g>
<g opacity="0.6">
	<g>
		<path fill="#3021EC" d="M48.651,84c1.654,0,3,1.346,3,3v15c0,1.653-1.346,3-3,3h-15c-1.653,0-3-1.347-3-3V87c0-1.654,1.347-3,3-3
			H48.651 M48.651,81h-15c-3.313,0-6,2.687-6,6v15c0,3.313,2.688,6,6,6h15c3.313,0,6-2.688,6-6V87
			C54.651,83.687,51.964,81,48.651,81L48.651,81z"/>
	</g>
</g>
<g opacity="0.6">
	<path fill="#3021EC" d="M117.651,84.5h-18c-0.827,0-1.5-0.672-1.5-1.5s0.673-1.5,1.5-1.5h18c0.828,0,1.5,0.672,1.5,1.5
		S118.479,84.5,117.651,84.5z"/>
</g>
<g opacity="0.6">
	<path fill="#3021EC" d="M111.651,93.5h-12c-0.827,0-1.5-0.672-1.5-1.5s0.673-1.5,1.5-1.5h12c0.828,0,1.5,0.672,1.5,1.5
		S112.479,93.5,111.651,93.5z"/>
</g>
<g opacity="0.6">
	<path fill="#3021EC" d="M115.651,102.5h-16c-0.827,0-1.5-0.672-1.5-1.5s0.673-1.5,1.5-1.5h16c0.828,0,1.5,0.672,1.5,1.5
		S116.479,102.5,115.651,102.5z"/>
</g>
<g>
	<path fill="#3021EC" d="M58.43,94.163c0,2.723-2.208,4.93-4.93,4.93H41.174c-2.724,0-4.93-2.207-4.93-4.93V81.838
		c0-2.724,2.207-4.931,4.93-4.931H53.5c2.722,0,4.93,2.207,4.93,4.931V94.163z"/>
</g>
<g>
	<path fill="#3021EC" d="M139.334,132.592h-9.041c-0.828,0-1.5-0.672-1.5-1.5s0.672-1.5,1.5-1.5h9.041c0.828,0,1.5,0.672,1.5,1.5
		S140.163,132.592,139.334,132.592z"/>
</g>
<g>
	<path fill="#3021EC" d="M134.815,136.842c-0.828,0-1.5-0.672-1.5-1.5v-8.75c0-0.828,0.672-1.5,1.5-1.5s1.5,0.672,1.5,1.5v8.75
		C136.315,136.17,135.643,136.842,134.815,136.842z"/>
</g>
</svg>
