<?xml version="1.0" encoding="utf-8"?>
<!-- Generator: Adobe Illustrator 16.0.0, SVG Export Plug-In . SVG Version: 6.00 Build 0)  -->
<!DOCTYPE svg PUBLIC "-//W3C//DTD SVG 1.1//EN" "http://www.w3.org/Graphics/SVG/1.1/DTD/svg11.dtd">
<svg version="1.1" id="Layer_150" xmlns="http://www.w3.org/2000/svg" xmlns:xlink="http://www.w3.org/1999/xlink" x="0px" y="0px"
	 width="145.979px" height="155.059px" viewBox="0 0 145.979 155.059" enable-background="new 0 0 145.979 155.059"
	 xml:space="preserve">
<g>
	<path fill="#3021EC" d="M144.478,146.059h-31.826c-0.828,0-1.5-0.672-1.5-1.5s0.672-1.5,1.5-1.5h31.826c0.828,0,1.5,0.672,1.5,1.5
		S145.306,146.059,144.478,146.059z"/>
</g>
<g>
	<path fill="#3021EC" d="M78.152,146.059H10.145c-0.829,0-1.5-0.672-1.5-1.5s0.671-1.5,1.5-1.5h68.007c0.828,0,1.5,0.672,1.5,1.5
		S78.98,146.059,78.152,146.059z"/>
</g>
<g>
	<path fill="#3021EC" d="M27.478,155.059h-25c-0.829,0-1.5-0.672-1.5-1.5s0.671-1.5,1.5-1.5h25c0.829,0,1.5,0.672,1.5,1.5
		S28.306,155.059,27.478,155.059z"/>
</g>
<g>
	<path fill="#3021EC" d="M128.103,122.305H15.867c-2.925,0-5.305-2.38-5.305-5.305V24.186c0-2.925,2.38-5.305,5.305-5.305h112.236
		c2.925,0,5.305,2.38,5.305,5.305V117C133.408,119.925,131.028,122.305,128.103,122.305z M15.867,21.881
		c-1.271,0-2.305,1.034-2.305,2.305V117c0,1.271,1.034,2.305,2.305,2.305h112.236c1.271,0,2.305-1.034,2.305-2.305V24.186
		c0-1.271-1.034-2.305-2.305-2.305H15.867z"/>
</g>
<g>
	<path fill="#3021EC" d="M131.908,33.295H12.063c-0.829,0-1.5-0.671-1.5-1.5s0.671-1.5,1.5-1.5h119.845c0.828,0,1.5,0.671,1.5,1.5
		S132.736,33.295,131.908,33.295z"/>
</g>
<g>
	<circle fill="#3021EC" cx="18.008" cy="26.184" r="1.545"/>
</g>
<g>
	<circle fill="#3021EC" cx="23.921" cy="26.184" r="1.546"/>
</g>
<g>
	<circle fill="#3021EC" cx="29.833" cy="26.184" r="1.546"/>
</g>
<g opacity="0.1">
	<g>
		<path fill="#3021EC" d="M11.229,63.41c-2.918,0-5.283,2.364-5.283,5.282s2.365,5.283,5.283,5.283h0.834V63.41H11.229z"/>
	</g>
	<g>
		<path fill="#3021EC" d="M118.89,15.854c0-2.92,2.366-5.285,5.282-5.285h5.285c2.918,0,5.285-2.364,5.285-5.282
			S132.376,0,129.458,0H55.482c-2.92,0-5.285,2.367-5.285,5.285s2.365,5.282,5.285,5.282h36.99c2.916,0,5.28,2.365,5.28,5.285
			c0,1.935-1.049,3.605-2.6,4.527h26.336C119.941,19.459,118.89,17.787,118.89,15.854z"/>
	</g>
	<g>
		<path fill="#3021EC" d="M144.652,36.988c0-8.19-6.215-14.93-14.187-15.764c0.871,0.697,1.441,1.758,1.441,2.961v28.349
			C139.173,51.088,144.652,44.68,144.652,36.988z"/>
	</g>
	<g>
		<path fill="#3021EC" d="M13.35,21.354C5.787,22.557,0,29.088,0,36.988c0,7.447,5.142,13.677,12.063,15.378V24.185
			C12.063,23.055,12.566,22.051,13.35,21.354z"/>
	</g>
</g>
<g>
	<path fill="#3021EC" d="M99.152,155.059h-17.5c-0.828,0-1.5-0.672-1.5-1.5s0.672-1.5,1.5-1.5h17.5c0.828,0,1.5,0.672,1.5,1.5
		S99.98,155.059,99.152,155.059z"/>
</g>
<g opacity="0.6">
	<path fill="#3021EC" d="M85.826,103c0,3.313-2.688,6-6,6h-15c-3.313,0-6-2.688-6-6V88c0-3.313,2.688-6,6-6h15c3.313,0,6,2.687,6,6
		V103z"/>
</g>
<g opacity="0.6">
	<path fill="#3021EC" d="M117.469,103c0,3.313-2.688,6-6,6h-15c-3.314,0-6-2.688-6-6V88c0-3.313,2.686-6,6-6h15c3.313,0,6,2.687,6,6
		V103z"/>
</g>
<g opacity="0.6">
	<g>
		<path fill="#3021EC" d="M48.651,85c1.654,0,3,1.346,3,3v15c0,1.653-1.346,3-3,3h-15c-1.654,0-3-1.347-3-3V88c0-1.654,1.346-3,3-3
			H48.651 M48.651,82h-15c-3.313,0-6,2.687-6,6v15c0,3.313,2.687,6,6,6h15c3.313,0,6-2.688,6-6V88
			C54.651,84.687,51.965,82,48.651,82L48.651,82z"/>
	</g>
</g>
<g>
	<path fill="#3021EC" d="M64.697,92.75c0,3.313-2.688,6-6,6h-15c-3.313,0-6-2.688-6-6v-15c0-3.313,2.687-6,6-6h15
		c3.313,0,6,2.687,6,6V92.75z"/>
</g>
<g>
	<path fill="#3021EC" d="M31.146,46.528c0,1.522-1.235,2.757-2.756,2.757h-6.894c-1.521,0-2.756-1.234-2.756-2.757v-6.892
		c0-1.523,1.234-2.757,2.756-2.757h6.894c1.521,0,2.756,1.233,2.756,2.757V46.528z"/>
</g>
<g opacity="0.6">
	<path fill="#3021EC" d="M55.146,46.528c0,1.522-1.235,2.757-2.756,2.757h-1.894c-1.521,0-2.756-1.234-2.756-2.757v-6.892
		c0-1.523,1.234-2.757,2.756-2.757h1.894c1.521,0,2.756,1.233,2.756,2.757V46.528z"/>
</g>
<g>
	<path fill="#3021EC" d="M131.908,56.059H12.063c-0.829,0-1.5-0.671-1.5-1.5s0.671-1.5,1.5-1.5h119.845c0.828,0,1.5,0.671,1.5,1.5
		S132.736,56.059,131.908,56.059z"/>
</g>
<g opacity="0.6">
	<circle fill="#3021EC" cx="77.16" cy="43.322" r="5.963"/>
</g>
<g opacity="0.6">
	<path fill="#3021EC" d="M117.576,41.859h-15.591c-0.828,0-1.5-0.671-1.5-1.5c0-0.828,0.672-1.5,1.5-1.5h15.591
		c0.828,0,1.5,0.672,1.5,1.5C119.076,41.188,118.404,41.859,117.576,41.859z"/>
</g>
<g opacity="0.6">
	<path fill="#3021EC" d="M112.576,47.823h-10.25c-0.828,0-1.5-0.672-1.5-1.5c0-0.829,0.672-1.5,1.5-1.5h10.25
		c0.828,0,1.5,0.671,1.5,1.5C114.076,47.151,113.404,47.823,112.576,47.823z"/>
</g>
<g>
	<path fill="#3021EC" d="M30.287,71.184c-0.448,0-0.879-0.2-1.167-0.559c-0.361-0.447-0.435-1.062-0.188-1.581l0.508-1.078
		c-4.841-2.698-5.803-5.097-5.914-5.422c-0.27-0.784,0.148-1.637,0.933-1.905c0.771-0.264,1.604,0.134,1.89,0.889
		c0.047,0.104,0.841,1.715,4.373,3.72l0.5-1.062c0.242-0.517,0.758-0.85,1.328-0.859c0.575-0.035,1.099,0.303,1.36,0.811L35.906,68
		c0.011,0.021,0.021,0.042,0.031,0.063c0.001,0.001,0,0.002,0.001,0.002c0.138,0.297,0.169,0.619,0.109,0.92
		c-0.024,0.127-0.065,0.248-0.121,0.362c-0.116,0.243-0.301,0.457-0.54,0.61c-0.074,0.048-0.152,0.089-0.235,0.123
		c-0.088,0.037-0.179,0.063-0.271,0.083l-4.256,0.982C30.512,71.171,30.399,71.184,30.287,71.184z"/>
</g>
</svg>
