<?xml version="1.0" encoding="utf-8"?>
<!-- Generator: Adobe Illustrator 16.0.0, SVG Export Plug-In . SVG Version: 6.00 Build 0)  -->
<!DOCTYPE svg PUBLIC "-//W3C//DTD SVG 1.1//EN" "http://www.w3.org/Graphics/SVG/1.1/DTD/svg11.dtd">
<svg version="1.1" id="Layer_150" xmlns="http://www.w3.org/2000/svg" xmlns:xlink="http://www.w3.org/1999/xlink" x="0px" y="0px"
	 width="145.059px" height="144.387px" viewBox="0 0 145.059 144.387" enable-background="new 0 0 145.059 144.387"
	 xml:space="preserve">
<g opacity="0.1">
	<g>
		<path fill="#3021EC" d="M140.986,71.827l-21.613-21.613v15.329l10.115,10.115l3.834,3.834c2.116,2.115,5.547,2.115,7.664,0
			C143.102,77.376,143.102,73.943,140.986,71.827z"/>
	</g>
	<g>
		<path fill="#3021EC" d="M26.533,49.351L13.083,35.9l0,0L9.25,32.068c-2.116-2.116-5.547-2.118-7.665,0
			c-2.115,2.116-2.113,5.547,0.002,7.663l21.44,21.439l0.208-8.432L26.533,49.351z"/>
	</g>
	<g>
		<path fill="#3021EC" d="M34.095,41.583L20.748,28.236c2.117,2.117,2.117,5.547,0.001,7.664c-2.118,2.118-5.549,2.118-7.666,0.001
			l13.45,13.45L34.095,41.583z"/>
	</g>
	<g>
		<path fill="#3021EC" d="M119.373,80.87l2.451,2.45c-2.115-2.113-2.116-5.545,0.001-7.661c2.116-2.116,5.549-2.116,7.663-0.001
			l-10.115-10.115V80.87z"/>
	</g>
	<g>
		<path fill="#3021EC" d="M107.406,108.617h-6.276l1.056,1.055c6.35,6.35,16.644,6.352,22.994,0c6.351-6.35,6.351-16.645,0-22.994
			l-5.807-5.806v20.515C119.373,101.387,119.156,108.617,107.406,108.617z"/>
	</g>
	<g>
		<g>
			<path fill="#3021EC" d="M55.183,16.681L43.264,4.763c-6.351-6.35-16.646-6.35-22.995,0c-6.352,6.351-6.351,16.645,0,22.995
				l0.479,0.479l13.348,13.347L47.04,28.286C47.177,23.557,48.555,16.914,55.183,16.681z"/>
		</g>
	</g>
</g>
<g>
	<path fill="#3021EC" d="M143.558,135.387h-11.826c-0.828,0-1.5-0.672-1.5-1.5s0.672-1.5,1.5-1.5h11.826c0.828,0,1.5,0.672,1.5,1.5
		S144.386,135.387,143.558,135.387z"/>
</g>
<g>
	<path fill="#3021EC" d="M122.232,135.387H9.225c-0.829,0-1.5-0.672-1.5-1.5s0.671-1.5,1.5-1.5h113.007c0.828,0,1.5,0.672,1.5,1.5
		S123.06,135.387,122.232,135.387z"/>
</g>
<g>
	<path fill="#3021EC" d="M26.558,144.387h-25c-0.829,0-1.5-0.672-1.5-1.5s0.671-1.5,1.5-1.5h25c0.829,0,1.5,0.672,1.5,1.5
		S27.386,144.387,26.558,144.387z"/>
</g>
<g>
	<path fill="#3021EC" d="M47.288,72.859c-0.829,0-1.5-0.672-1.5-1.5V30.056c-0.042-0.731-0.299-7.26,3.537-11.371
		c2.014-2.159,4.751-3.253,8.135-3.253h36.327c11.53,0,14.577,9.536,14.577,14.578c0,0.829-0.672,1.5-1.5,1.5H67.63
		c-0.829,0-1.5-0.671-1.5-1.5c0-11.446-8.316-11.578-8.671-11.578c-2.554,0-4.498,0.752-5.94,2.299
		c-3.102,3.324-2.738,9.116-2.733,9.174c0.002,0.035,0.003,0.069,0.003,0.104v41.35C48.788,72.188,48.116,72.859,47.288,72.859z
		 M69.086,28.509h36.148c-0.446-3.142-2.45-10.078-11.449-10.078h-28.97C66.944,20.333,68.783,23.438,69.086,28.509z"/>
</g>
<g opacity="0.62">
	<path fill="#3021EC" d="M57.459,16.932c0,0,10.171,0,10.171,13.078h39.233c0,0,0-13.078-13.077-13.078H57.459"/>
</g>
<g>
	<path fill="#3021EC" d="M100.325,68.11c-0.828,0-1.5-0.672-1.5-1.5V30.009c0-0.829,0.672-1.5,1.5-1.5s1.5,0.671,1.5,1.5V66.61
		C101.825,67.438,101.153,68.11,100.325,68.11z"/>
</g>
<g>
	<path fill="#3021EC" d="M111.361,110.117c-0.391,0-0.78-0.151-1.074-0.453L77.387,75.876c-5.828-5.178-11.62-0.466-12.174,0.007
		l-32.893,33.781c-0.578,0.593-1.528,0.605-2.121,0.027c-0.594-0.577-0.605-1.527-0.028-2.121l32.937-33.825
		c0.023-0.024,0.048-0.048,0.074-0.07c2.81-2.517,9.82-5.757,16.244,0c0.025,0.022,0.051,0.046,0.073,0.07l32.937,33.825
		c0.578,0.594,0.564,1.544-0.027,2.121C112.116,109.977,111.738,110.117,111.361,110.117z"/>
</g>
<g>
	<path fill="#3021EC" d="M111.361,110.117H31.247c-7.522,0-9.511-6.221-9.511-9.512V52.538c0-0.576,0.33-1.101,0.848-1.351
		c0.519-0.25,1.134-0.183,1.585,0.176l35.313,28.042c0.648,0.516,0.757,1.459,0.242,2.106c-0.516,0.648-1.458,0.757-2.107,0.242
		L24.735,55.644v44.961c0.005,0.662,0.235,6.512,6.511,6.512h80.114c0.661-0.006,6.512-0.235,6.512-6.512V55.659l-32.76,26.209
		c-0.649,0.521-1.592,0.413-2.108-0.233c-0.518-0.646-0.413-1.591,0.233-2.107l35.198-28.16c0.451-0.359,1.069-0.429,1.587-0.181
		c0.521,0.25,0.851,0.775,0.851,1.352v48.069C120.873,108.13,114.651,110.117,111.361,110.117z"/>
</g>
<g>
	<path fill="#3021EC" d="M119.373,54.038c-0.391,0-0.781-0.152-1.075-0.454L99.25,34c-0.578-0.594-0.563-1.543,0.029-2.121
		c0.595-0.577,1.545-0.564,2.121,0.029l19.048,19.583c0.578,0.594,0.564,1.543-0.029,2.121
		C120.126,53.896,119.75,54.038,119.373,54.038z"/>
</g>
<g>
	<path fill="#3021EC" d="M58.067,18.432c-0.378,0-0.757-0.142-1.049-0.428c-0.593-0.579-0.604-1.529-0.023-2.121l5.226-5.341
		c0.104-0.104,2.303-2.278,5.604-3.378c3.146-1.047,7.873-1.313,12.55,3.367l4.271,4.367c0.579,0.592,0.567,1.542-0.023,2.121
		c-0.593,0.579-1.541,0.568-2.121-0.023l-4.26-4.355c-2.875-2.875-6.061-3.765-9.469-2.63c-2.597,0.865-4.403,2.624-4.421,2.642
		l-5.213,5.33C58.846,18.281,58.457,18.432,58.067,18.432z"/>
</g>
<g>
	<path fill="#3021EC" d="M23.235,54.038c-0.379,0-0.759-0.143-1.051-0.43c-0.592-0.58-0.601-1.53-0.021-2.121l23.589-24.034
		c0.579-0.592,1.53-0.6,2.121-0.02s0.601,1.53,0.021,2.121L24.306,53.588C24.012,53.888,23.624,54.038,23.235,54.038z"/>
</g>
<g>
	<path fill="#3021EC" d="M87.327,42.333h-28.93c-0.829,0-1.5-0.671-1.5-1.5s0.671-1.5,1.5-1.5h28.93c0.828,0,1.5,0.671,1.5,1.5
		S88.155,42.333,87.327,42.333z"/>
</g>
<g>
	<path fill="#3021EC" d="M79.76,51.739H58.396c-0.829,0-1.5-0.671-1.5-1.5c0-0.829,0.671-1.5,1.5-1.5H79.76
		c0.828,0,1.5,0.671,1.5,1.5C81.26,51.068,80.588,51.739,79.76,51.739z"/>
</g>
<g>
	<path fill="#3021EC" d="M85.546,61.287H58.396c-0.829,0-1.5-0.672-1.5-1.5s0.671-1.5,1.5-1.5h27.149c0.828,0,1.5,0.672,1.5,1.5
		S86.375,61.287,85.546,61.287z"/>
</g>
<g>
	<path fill="#3021EC" d="M118.222,13.869c-0.385,0-0.769-0.146-1.062-0.439c-0.586-0.585-0.586-1.536,0-2.121l9.093-9.093
		c0.586-0.586,1.535-0.586,2.121,0c0.586,0.585,0.586,1.536,0,2.121l-9.093,9.093C118.99,13.723,118.606,13.869,118.222,13.869z"/>
</g>
<g>
	<path fill="#3021EC" d="M120.906,21.732c-0.384,0-0.768-0.146-1.061-0.439c-0.587-0.585-0.587-1.536,0-2.121l5.384-5.384
		c0.586-0.586,1.535-0.586,2.121,0c0.586,0.585,0.586,1.536,0,2.121l-5.385,5.384C121.673,21.586,121.29,21.732,120.906,21.732z"/>
</g>
</svg>
