<?xml version="1.0" encoding="utf-8"?>
<!-- Generator: Adobe Illustrator 16.0.0, SVG Export Plug-In . SVG Version: 6.00 Build 0)  -->
<!DOCTYPE svg PUBLIC "-//W3C//DTD SVG 1.1//EN" "http://www.w3.org/Graphics/SVG/1.1/DTD/svg11.dtd">
<svg version="1.1" id="Layer_1" xmlns="http://www.w3.org/2000/svg" xmlns:xlink="http://www.w3.org/1999/xlink" x="0px" y="0px"
	 width="135.083px" height="144.83px" viewBox="0 0 135.083 144.83" enable-background="new 0 0 135.083 144.83"
	 xml:space="preserve">
<g>
	<path fill="#3021EC" d="M68.467,21.345c-2.92,0-5.287-2.367-5.287-5.287V5.287C63.18,2.367,65.547,0,68.467,0
		c2.92,0,5.287,2.367,5.287,5.287v10.771C73.754,18.978,71.387,21.345,68.467,21.345z"/>
</g>
<g>
	<path fill="#3021EC" d="M31.684,36.581c-1.305,0-2.612-0.48-3.635-1.449l-7.429-7.039c-2.119-2.008-2.211-5.354-0.202-7.474
		s5.354-2.211,7.474-0.201l7.43,7.038c2.119,2.008,2.21,5.354,0.202,7.475C34.483,36.027,33.085,36.581,31.684,36.581z"/>
</g>
<g>
	<path fill="#3021EC" d="M16.45,73.362h-0.002L5.286,73.36c-2.92,0-5.287-2.367-5.286-5.287c0.001-2.92,2.368-5.286,5.287-5.286
		h0.001L16.45,62.79c2.921,0,5.287,2.367,5.286,5.287S19.369,73.362,16.45,73.362z"/>
</g>
<g>
	<path fill="#3021EC" d="M129.795,73.362L129.795,73.362l-9.313-0.002c-2.92,0-5.286-2.367-5.285-5.287
		c0.002-2.92,2.367-5.286,5.287-5.286h0.001l9.312,0.003c2.92,0,5.287,2.367,5.285,5.287
		C135.083,70.997,132.715,73.362,129.795,73.362z"/>
</g>
<g>
	<path fill="#3021EC" d="M105.247,36.58c-1.353,0-2.705-0.517-3.736-1.548c-2.065-2.065-2.065-5.413,0-7.479l7.037-7.037
		c2.063-2.063,5.412-2.063,7.476,0c2.065,2.065,2.065,5.413,0,7.478l-7.037,7.038C107.954,36.063,106.601,36.58,105.247,36.58z"/>
</g>
<g>
	<path fill="#3021EC" d="M57.945,125.862c-1.779,0-3.516-0.898-4.514-2.526c-1.524-2.489-0.743-5.745,1.747-7.271l18.214-11.155
		c1.446-11.265,10.296-20.04,11.62-21.297c4.025-4.248,6.242-9.808,6.242-15.669c0-12.566-10.224-22.789-22.789-22.789
		c-12.564,0-22.786,10.223-22.786,22.789c0,5.862,2.217,11.422,6.244,15.671c0.989,0.94,6.316,6.214,9.444,13.506
		c1.15,2.685-0.092,5.792-2.775,6.942c-2.683,1.149-5.791-0.092-6.943-2.775c-2.464-5.746-6.995-9.994-7.04-10.037
		c-0.074-0.07-0.159-0.152-0.229-0.227c-5.979-6.237-9.274-14.436-9.274-23.081c0-18.396,14.966-33.363,33.361-33.363
		c18.396,0,33.363,14.967,33.363,33.363c0,8.646-3.295,16.843-9.274,23.081c-0.077,0.082-0.158,0.16-0.239,0.235
		c-0.074,0.068-8.549,8.046-8.549,16.733c0,1.841-0.956,3.548-2.525,4.509l-20.54,12.58
		C59.841,125.61,58.886,125.862,57.945,125.862z"/>
</g>
<g>
	<path fill="#3021EC" d="M63.311,144.83c-1.798,0-3.551-0.918-4.541-2.573c-1.499-2.506-0.685-5.752,1.821-7.252l15.943-9.542
		c2.502-1.5,5.752-0.685,7.252,1.821s0.686,5.752-1.822,7.252l-15.942,9.542C65.171,144.587,64.235,144.83,63.311,144.83z"/>
</g>
</svg>
