<?xml version="1.0" encoding="utf-8"?>
<!-- Generator: Adobe Illustrator 16.0.0, SVG Export Plug-In . SVG Version: 6.00 Build 0)  -->
<!DOCTYPE svg PUBLIC "-//W3C//DTD SVG 1.1//EN" "http://www.w3.org/Graphics/SVG/1.1/DTD/svg11.dtd">
<svg version="1.1" id="Layer_150" xmlns="http://www.w3.org/2000/svg" xmlns:xlink="http://www.w3.org/1999/xlink" x="0px" y="0px"
	 width="145px" height="144.387px" viewBox="0 0 145 144.387" enable-background="new 0 0 145 144.387" xml:space="preserve">
<g>
	<path fill="#3021EC" d="M143.5,135.387h-31.826c-0.828,0-1.5-0.672-1.5-1.5s0.672-1.5,1.5-1.5H143.5c0.828,0,1.5,0.672,1.5,1.5
		S144.329,135.387,143.5,135.387z"/>
</g>
<g>
	<path fill="#3021EC" d="M102.174,135.387H9.167c-0.829,0-1.5-0.672-1.5-1.5s0.671-1.5,1.5-1.5h93.007c0.828,0,1.5,0.672,1.5,1.5
		S103.002,135.387,102.174,135.387z"/>
</g>
<g>
	<path fill="#3021EC" d="M26.5,144.387h-25c-0.829,0-1.5-0.672-1.5-1.5s0.671-1.5,1.5-1.5h25c0.829,0,1.5,0.672,1.5,1.5
		S27.329,144.387,26.5,144.387z"/>
</g>
<g>
	<path fill="#3021EC" d="M89.348,99.387h-36c-0.829,0-1.5-0.672-1.5-1.5v-67c0-0.829,0.671-1.5,1.5-1.5h9.833
		c0.829,0,1.5,0.671,1.5,1.5c0,0.829-0.671,1.5-1.5,1.5h-8.333v64h33v-64h-7.832c-0.828,0-1.5-0.671-1.5-1.5
		c0-0.829,0.672-1.5,1.5-1.5h9.332c0.828,0,1.5,0.671,1.5,1.5v67C90.848,98.715,90.176,99.387,89.348,99.387z"/>
</g>
<g>
	<path fill="#3021EC" d="M71.089,57.498c-2.821,0-5.446-1.195-7.802-3.551c-0.241-0.241-0.393-0.556-0.43-0.896l-2-18
		c-0.047-0.424,0.088-0.848,0.373-1.166c0.285-0.318,0.691-0.5,1.118-0.5h18c0.428,0,0.834,0.182,1.118,0.5
		c0.284,0.318,0.42,0.742,0.373,1.166l-2,18c-0.038,0.339-0.188,0.654-0.431,0.896C79.264,54.092,75.805,57.498,71.089,57.498z
		 M65.779,52.182c1.668,1.538,3.452,2.316,5.311,2.316c2.7,0,4.973-1.639,5.832-2.35l1.751-15.762H64.024L65.779,52.182z"/>
</g>
<g>
	<path fill="#3021EC" d="M80.348,36.387c-0.627,0-1.214-0.397-1.423-1.026l-2.657-7.974h-9.838l-2.658,7.974
		c-0.262,0.787-1.109,1.214-1.897,0.949c-0.786-0.262-1.211-1.111-0.949-1.897l3-9c0.204-0.613,0.777-1.026,1.423-1.026h12
		c0.646,0,1.219,0.413,1.424,1.026l3,9c0.262,0.786-0.162,1.635-0.948,1.897C80.666,36.362,80.505,36.387,80.348,36.387z"/>
</g>
<g opacity="0.6">
	<g>
		<path fill="#3021EC" d="M64.348,52.887l-0.056-0.5h-1.536v19.408c0,4.745,3.847,8.592,8.592,8.592
			c4.745,0,8.591-3.847,8.591-8.592V52.387h-1.535l-0.057,0.5C78.348,52.887,71.348,59.887,64.348,52.887z"/>
	</g>
</g>
<g>
	<circle fill="#3021EC" cx="71.348" cy="89.222" r="3.333"/>
</g>
<g opacity="0.1">
	<g>
		<path fill="#3021EC" d="M139.046,75.415L87.348,36.549v12.833l16.84,12.66c0-0.001,0-0.001,0-0.001l5.375,4.041l23.32,17.532
			c2.264,1.702,5.479,1.247,7.182-1.019C141.766,80.333,141.311,77.117,139.046,75.415z"/>
	</g>
	<g>
		<path fill="#3021EC" d="M3.155,56.669c-1.702,2.264-1.245,5.478,1.019,7.18L41.07,91.587c2.264,1.702,5.478,1.247,7.18-1.017
			c1.703-2.266,1.248-5.479-1.017-7.182L10.337,55.652C8.073,53.95,4.858,54.404,3.155,56.669z"/>
	</g>
	<g>
		<path fill="#3021EC" d="M34.064,60.656l-13.461-10.12c2.262,1.703,2.718,4.916,1.017,7.179c-1.703,2.266-4.918,2.722-7.183,1.019
			l32.795,24.657c-2.264-1.703-2.719-4.918-1.016-7.185c1.69-2.248,4.871-2.706,7.132-1.045v-0.007L34.064,60.656z"/>
	</g>
	<g>
		<path fill="#3021EC" d="M105.203,69.222c-1.702,2.264-4.915,2.718-7.178,1.02l24.59,18.484c-2.26-1.701-2.715-4.912-1.014-7.177
			c1.703-2.265,4.918-2.72,7.181-1.019l-19.22-14.449l-5.375-4.04C106.449,63.743,106.906,66.957,105.203,69.222z"/>
	</g>
	<g>
		<path fill="#3021EC" d="M98.023,70.24c0.002,0,0.002,0.001,0.002,0.001l-10.678-8.027v35.673h-3.761l24.128,18.139
			c6.792,5.107,16.438,3.74,21.545-3.053c5.106-6.791,3.739-16.438-3.053-21.545l-3.594-2.701c0.002,0.002,0.003,0.002,0.004,0.004
			L98.023,70.24z"/>
	</g>
	<g>
		<path fill="#3021EC" d="M34.064,60.656l19.284,14.496v-38.5L38.581,25.552c-6.792-5.106-16.438-3.739-21.545,3.053
			s-3.74,16.438,3.053,21.545l0.514,0.386c-0.001,0-0.001-0.001-0.002-0.001L34.064,60.656z"/>
	</g>
</g>
<g>
	<path fill="#3021EC" d="M23.153,9.387c-2.588,0-4.693-2.105-4.693-4.693C18.46,2.106,20.565,0,23.153,0
		c2.589,0,4.695,2.105,4.695,4.693C27.848,7.281,25.742,9.387,23.153,9.387z M23.153,3C22.22,3,21.46,3.76,21.46,4.693
		s0.76,1.693,1.693,1.693c0.935,0,1.695-0.76,1.695-1.693S24.088,3,23.153,3z"/>
</g>
</svg>
