<?xml version="1.0" encoding="utf-8"?>
<!-- Generator: Adobe Illustrator 23.0.1, SVG Export Plug-In . SVG Version: 6.00 Build 0)  -->
<svg version="1.2" baseProfile="tiny" xmlns="http://www.w3.org/2000/svg" xmlns:xlink="http://www.w3.org/1999/xlink" x="0px"
	 y="0px" viewBox="0 0 78 78" xml:space="preserve">
<g id="Layer_1" display="none">
	<rect y="0" fill="#FFFFFF" stroke="#000000" stroke-miterlimit="10" width="78" height="78"/>
	<ellipse fill="#3021EC" cx="64.1" cy="68.6" rx="7.8" ry="4.3"/>
	<rect x="2.8" y="5.5" display="inline" fill="none" width="68.9" height="57.1"/>
	<text transform="matrix(1 0 0 1 2.7661 39.1283)" fill="#3021EC" font-family="'Geometria-MediumItalic'" font-size="48px">LP</text>
	<rect x="2.8" y="5.5" display="inline" fill="none" width="130.4" height="57.1"/>
	<text transform="matrix(1 0 0 1 2.7661 39.1283)" fill="#3021EC" font-family="'Geometria-MediumItalic'" font-size="48px">LPR</text>
	<rect x="-29.6" y="0" display="inline" fill="none" width="154.1" height="57.1"/>
	<text transform="matrix(1 0 0 1 -29.5956 50.4018)" fill="#3021EC" font-family="'Geometria-Italic'" font-size="72px">LPR</text>
	<g display="inline">
		<path display="none" fill="#3021EC" d="M0.2,78l10.3-64.7h6.8L8.1,71.8h36.2l-1,6.2H0.2z"/>
		<path display="none" fill="#3021EC" d="M0.2,78l10.3-64.7h6.8L8.1,71.8h43.7l-1,6.2H0.2z"/>
		<path fill="#3021EC" d="M25.5,0h26.2c11.9,0,19,6.3,19,15.9c0,6-2.1,10.8-6.5,14.6c-4.3,3.8-9.7,5.6-16.3,5.6H26.6l-4.8,30H15
			L25.5,0z M48.3,30c4.2,0,7.8-1.1,10.8-3.4c3.1-2.3,4.6-5.6,4.6-9.8c0-6.7-4.5-10.5-12.8-10.5H31.4L27.7,30H48.3z"/>
		<path display="none" fill="#3021EC" d="M25.5,0h26.2c11.9,0,19,6.3,19,15.9c0,6-2.1,10.8-6.5,14.6c-4.3,3.8-9.7,5.6-16.3,5.6H26.6
			l-4.3,27.2c-0.3,1.6-1.7,2.8-3.3,2.8h0c-2.1,0-3.7-1.9-3.3-3.9L25.5,0z M48.3,30c4.2,0,7.8-1.1,10.8-3.4c3.1-2.3,4.6-5.6,4.6-9.8
			c0-6.7-4.5-10.5-12.8-10.5H31.4L27.7,30H48.3z"/>
		<path display="none" fill="#3021EC" d="M76.8,64.7H69L53.5,35.6H32.9l-4.6,29.1h-6.8L31.7,0h27.6C71.1,0,78,6.4,78,15.7
			c0,9.9-6.8,17.1-17.1,19.2L76.8,64.7z M37.5,6.2l-3.6,23.2H56c4.2,0,7.8-1.1,10.7-3.3c3-2.3,4.4-5.5,4.4-9.4
			c0-6.6-4.7-10.4-12.9-10.4H37.5z"/>
		<path display="none" fill="#3021EC" d="M76.8,64.7H69L53.5,35.6H32.9l-4.6,29.1h-6.8L31.7,0h27.6C71.1,0,78,6.4,78,15.7
			c0,9.9-6.8,17.1-17.1,19.2L76.8,64.7z M37.5,6.2l-3.6,23.2H56c4.2,0,7.8-1.1,10.7-3.3c3-2.3,4.4-5.5,4.4-9.4
			c0-6.6-4.7-10.4-12.9-10.4H37.5z"/>
		<path display="none" fill="#3021EC" d="M78,78h-8L47.3,35.6H26.7l-4.6,29.1h-6.8L25.5,0h27.6c11.7,0,18.7,6.4,18.7,15.7
			c0,9.9-6.8,17.1-17.1,19.2L78,78z M31.4,6.2l-3.6,23.2h22.1c4.2,0,7.8-1.1,10.7-3.3c3-2.3,4.4-5.5,4.4-9.4
			c0-6.6-4.7-10.4-12.9-10.4H31.4z"/>
	</g>
	<g>
		<path display="inline" fill="#3021EC" d="M-0.2,71l8.8-55.4h8.8L9.8,63h29.5L38,71H-0.2z"/>
		<path display="inline" fill="#3021EC" d="M28.8,0.9h22.8c10.7,0,17.2,5.8,17.2,14.3c0,5.4-2,9.8-5.9,13.2
			c-3.9,3.4-8.8,5.1-14.7,5.1H32.3l-3.6,22.9H20L28.8,0.9z M49.1,25.5c6,0,10.9-3.5,10.9-9.3c0-4.5-3.2-7.3-8.9-7.3H36.2l-2.5,16.6
			H49.1z"/>
		<path display="inline" fill="#3021EC" d="M68.9,56.4H59L45.9,32.9H32l-3.7,23.4h-8.7l8.8-55.4h24c10.5,0,16.9,5.8,16.9,14.3
			c0,8.2-5.5,14.5-13.9,16.7L68.9,56.4z M35.8,8.9l-2.6,16.3h16.6c5.9,0,10.7-3.5,10.7-9c0-4.7-3.3-7.4-9-7.4H35.8z"/>
	</g>
	<rect x="15.8" y="64.7" fill="#309BEC" width="13.3" height="7.1"/>
	<rect x="40" y="36.2" fill="#309BEC" width="23.2" height="7.1"/>
	<g>
		<path fill="#3021EC" d="M47.6,36.2h7.7L54.7,35c10.3-2.1,17.1-9.3,17.1-19.2C71.9,6.4,64.9,0,53.2,0H25.5L15.3,64.7h6.8l4.6-29.1
			h20.6L47.6,36.2z M31.4,6.2h20.8c8.1,0,12.9,3.9,12.9,10.4c0,4-1.5,7.1-4.4,9.4c-3,2.2-6.6,3.3-10.7,3.3H27.7L31.4,6.2z"/>
		<polygon display="inline" fill="#3021EC" points="59.2,43.2 51.4,43.2 70,78 78,78 		"/>
	</g>
	<polygon fill="#3021EC" points="38.7,43.2 30.9,43.2 49.5,78 57.5,78 	"/>
	<path fill="#3021EC" d="M36.7,43.2L36.7,43.2c-2.6,0-4.3,2.8-3,5.1l12.5,23.5H8.1l8.6-54.6c0.3-2.1-1.3-3.9-3.3-3.9h0
		c-1.7,0-3.1,1.2-3.3,2.9L0.2,78h49.3h1.3h6.7L39.7,45C39.1,43.9,37.9,43.2,36.7,43.2z"/>
	<polygon fill="#3021EC" points="38.7,43.2 30.9,43.2 46.2,71.8 8.1,71.8 17.3,13.3 10.5,13.3 0.2,78 49.5,78 50.8,78 57.5,78 	"/>
	<polygon display="inline" fill="#3021EC" points="38.7,43.2 30.9,43.2 46.2,71.8 8.1,71.8 17.3,13.3 10.5,13.3 0.2,78 49.5,78 
		50.8,78 57.5,78 	"/>
	<polygon fill="#3021EC" points="53,43.2 45.2,43.2 57.5,66.2 65.5,66.2 	"/>
	<polygon display="inline" fill="#3021EC" points="53,43.2 45.2,43.2 57.5,66.2 65.5,66.2 	"/>
	<polygon fill="#3021EC" points="39.6,78 31.9,76.8 55.7,45.3 63.6,46.6 	"/>
	<polygon fill="#3021EC" points="30.9,43.2 15,66.2 21.9,66.2 38.7,43.2 	"/>
	<line fill="#3021EC" stroke="#309BEC" stroke-miterlimit="10" x1="28.5" y1="24.6" x2="34.6" y2="24.6"/>
	<line fill="#3021EC" stroke="#309BEC" stroke-miterlimit="10" x1="25.9" y1="41.1" x2="32" y2="41.1"/>
	<polygon fill="#3021EC" points="25.9,41.1 28.5,24.6 34.6,24.6 32,41.1 	"/>
	<path fill="#3021EC" d="M51.7,0H25.5L15,66.2h6.8l4-25.1l0,0l5.5-34.9H51c8.2,0,12.8,3.9,12.8,10.5c0,4.2-1.6,7.5-4.6,9.8
		C56,28.8,52.4,30,48.3,30H33.7l-1,6.2h15.1c6.6,0,11.9-1.8,16.3-5.6c4.3-3.8,6.5-8.6,6.5-14.6C70.7,6.3,63.6,0,51.7,0z"/>
	
		<rect x="90.4" y="-87.9" transform="matrix(0.9877 0.1566 -0.1566 0.9877 -10.1425 -17.384)" fill="#309BEC" width="29.7" height="29.7"/>
</g>
<g id="Layer_3" display="none">
	<g display="inline">
		<path fill="#3021EC" d="M76.2-45.7l8-50.4h5.3l-7.2,45.6h28.2l-0.8,4.8H76.2z"/>
		<path fill="#3021EC" d="M92.9-90.1h20.4c9.3,0,14.8,4.9,14.8,12.4c0,4.7-1.7,8.4-5,11.4c-3.4,3-7.6,4.4-12.7,4.4H93.8l-3.5,22.3
			h-5.3L92.9-90.1z M110.6-66.7c3.2,0,6-0.9,8.4-2.7c2.4-1.8,3.6-4.4,3.6-7.6c0-5.2-3.5-8.2-9.9-8.2H97.4l-2.9,18.5H110.6z"/>
		<path fill="#3021EC" d="M136.5-31.3h-6L118.3-54h-16.1l-3.6,22.7h-5.3l8-50.4h21.5c9.1,0,14.5,5,14.5,12.2c0,7.7-5.3,13.3-13.3,15
			L136.5-31.3z M105.9-76.9L103-58.8h17.2c3.2,0,6-0.9,8.4-2.6c2.3-1.8,3.5-4.2,3.5-7.3c0-5.1-3.7-8.1-10-8.1H105.9z"/>
	</g>
</g>
<g id="Layer_3_copy">
	<path fill="#3021EC" d="M75.8,32.1C75.8,25,71.5,19.7,64,18c-1.8-6.6-7.9-10.7-17.2-10.7H22.3l-7.5,47.5H9.6L18.2,0h-6.4L2.2,60.6
		h11.6l-1.2,7.3h6.4l1.2-7.3h5.3L22.8,78h6.4L32,60.6h10.5l1-5.8H32.9l0.7-4.1h19.3L67.4,78h7.3L59.8,50.1
		C69.4,48.1,75.8,41.4,75.8,32.1z M58,23.2c-0.1,3.8-1.5,6.8-4.3,9c-2.9,2.2-6.2,3.2-10.1,3.2H36l1.9-12.2h19.5
		C57.6,23.2,57.8,23.2,58,23.2z M27.7,13.1h18.4c5,0,8.5,1.5,10.4,4.3h-24l-2.9,18h-5.3L27.7,13.1z M21.2,54.8l2.2-13.7h5.3
		l-2.2,13.7H21.2z M34.5,44.9l0.6-3.7h8.2c6.1,0,11.2-1.7,15.2-5.3c3.5-3,5.4-6.8,5.9-11.3c3.2,1.6,5,4.5,5,8.4
		c0,3.7-1.4,6.7-4.2,8.8c-2.8,2.1-6.2,3.1-10,3.1H34.5z"/>
</g>
<g id="Layer_2" display="none">
	<g display="inline">
		<path fill="#3021EC" d="M3,78c-0.6,0-1.1-0.2-1.6-0.5c-1.2-0.8-1.7-2.3-1.2-3.6l27-72C27.6,0.8,28.7,0,30,0h45
			c1.2,0,2.3,0.7,2.8,1.9C78.2,3,78,4.3,77.1,5.1l-72,72C4.5,77.7,3.8,78,3,78z M32.1,6L10.7,63.1L67.8,6H32.1z"/>
	</g>
	<g display="inline">
		<path fill="#3021EC" d="M3,78c-1.2,0-2.4-0.7-2.8-1.9c-0.6-1.6,0.2-3.3,1.8-3.9l68.5-25.7L54.5,22.7c-0.9-1.4-0.5-3.2,0.8-4.2
			c1.4-0.9,3.2-0.5,4.2,0.8l18,27c0.5,0.8,0.6,1.7,0.4,2.6s-0.9,1.6-1.8,1.9l-72,27C3.7,77.9,3.4,78,3,78z"/>
	</g>
	<g display="inline">
		<path fill="#3021EC" d="M39,42c-1.3,0-2.6-0.9-2.9-2.3l-9-36c-0.4-1.6,0.6-3.2,2.2-3.6c1.6-0.4,3.2,0.6,3.6,2.2l9,36
			c0.4,1.6-0.6,3.2-2.2,3.6C39.5,42,39.2,42,39,42z"/>
	</g>
	<g display="inline">
		<path fill="#3021EC" d="M75,51H30c-1.7,0-3-1.3-3-3s1.3-3,3-3h45c1.7,0,3,1.3,3,3S76.7,51,75,51z"/>
	</g>
</g>
</svg>
