<?xml version="1.0" encoding="utf-8"?>
<!-- Generator: Adobe Illustrator 16.0.0, SVG Export Plug-In . SVG Version: 6.00 Build 0)  -->
<!DOCTYPE svg PUBLIC "-//W3C//DTD SVG 1.1//EN" "http://www.w3.org/Graphics/SVG/1.1/DTD/svg11.dtd">
<svg version="1.1" id="Layer_150" xmlns="http://www.w3.org/2000/svg" xmlns:xlink="http://www.w3.org/1999/xlink" x="0px" y="0px"
	 width="145px" height="154.926px" viewBox="0 0 145 154.926" enable-background="new 0 0 145 154.926" xml:space="preserve">
<g opacity="0.1">
	<g>
		<path fill="#3021EC" d="M70.697,45.427L80.975,35.15c-0.002,0.001-0.004,0.002-0.004,0.003l21.385-21.384l4.754-4.754
			c2.063-2.062,2.063-5.406,0-7.468c-2.063-2.062-5.407-2.062-7.469,0L59.054,42.133l3.293,3.293L70.697,45.427L70.697,45.427z"/>
	</g>
	<g>
		<path fill="#3021EC" d="M64.634,126.172L64.634,126.172l-3.734,3.734c-2.062,2.063-2.062,5.406,0,7.467
			c2.063,2.063,5.407,2.063,7.469,0l19.947-19.947H73.379L64.634,126.172z"/>
	</g>
	<g>
		<path fill="#3021EC" d="M62.491,117.426c0.782,0.248,1.523,0.658,2.143,1.277c2.062,2.063,2.063,5.404,0,7.469l8.745-8.746H62.491
			z"/>
	</g>
	<g>
		<path fill="#3021EC" d="M57.168,118.702c0.619-0.619,1.359-1.027,2.139-1.275h-0.864L57.168,118.702z"/>
	</g>
	<g>
		<path fill="#3021EC" d="M88.438,35.155c2.063,2.063,2.062,5.405,0,7.466l5.627-5.626l16.771-16.772
			c-2.063,2.056-5.4,2.056-7.462-0.005c-2.063-2.063-2.062-5.406-0.001-7.467l-1.02,1.019L80.973,35.15
			C83.036,33.093,86.376,33.094,88.438,35.155z"/>
	</g>
	<g>
		<path fill="#3021EC" d="M58.443,117.426H32.809c0.452,0.605,0.935,1.195,1.485,1.744c6.189,6.188,16.218,6.188,22.406,0
			l0.469-0.469c0,0.002-0.001,0.002-0.002,0.002L58.443,117.426z"/>
	</g>
	<g>
		<path fill="#3021EC" d="M136.516,16.949c-6.188-6.188-16.219-6.187-22.406,0l-3.272,3.273c0.001-0.001,0.003-0.002,0.005-0.004
			L94.064,36.995l-8.433,8.432h42.716c0.633,0,1.241,0.099,1.813,0.281l6.354-6.354C142.702,33.167,142.704,23.138,136.516,16.949z"
			/>
	</g>
	<g>
		<path fill="#3021EC" d="M59.307,117.426h3.184C61.453,117.099,60.345,117.099,59.307,117.426z"/>
	</g>
	<g>
		<path fill="#3021EC" d="M73.379,117.426l21.127-21.127L73.379,117.426z"/>
	</g>
	<g>
		<polygon fill="#3021EC" points="67.907,107.963 58.443,117.426 58.443,117.426 		"/>
	</g>
</g>
<g>
	<path fill="#3021EC" d="M143.5,145.926h-31.826c-0.828,0-1.5-0.672-1.5-1.5c0-0.827,0.672-1.5,1.5-1.5H143.5
		c0.828,0,1.5,0.673,1.5,1.5C145,145.254,144.329,145.926,143.5,145.926z"/>
</g>
<g>
	<path fill="#3021EC" d="M102.174,145.926H9.167c-0.829,0-1.5-0.672-1.5-1.5c0-0.827,0.671-1.5,1.5-1.5h93.007
		c0.828,0,1.5,0.673,1.5,1.5C103.674,145.254,103.002,145.926,102.174,145.926z"/>
</g>
<g>
	<path fill="#3021EC" d="M26.5,154.926h-25c-0.829,0-1.5-0.672-1.5-1.5c0-0.827,0.671-1.5,1.5-1.5h25c0.829,0,1.5,0.673,1.5,1.5
		C28,154.254,27.329,154.926,26.5,154.926z"/>
</g>
<g opacity="0.6">
	<path fill="#3021EC" d="M35.348,22.927c0,2.485-2.015,4.5-4.5,4.5h-18c-2.485,0-4.5-2.015-4.5-4.5l0,0c0-2.485,2.015-4.5,4.5-4.5
		h18C33.333,18.427,35.348,20.441,35.348,22.927L35.348,22.927z"/>
</g>
<g>
	<path fill="#3021EC" d="M71.348,22.927c0,2.485-2.015,4.5-4.5,4.5h-18c-2.485,0-4.5-2.015-4.5-4.5l0,0c0-2.485,2.015-4.5,4.5-4.5
		h18C69.333,18.427,71.348,20.441,71.348,22.927L71.348,22.927z"/>
</g>
<g opacity="0.6">
	<path fill="#3021EC" d="M107.348,22.927c0,2.485-2.015,4.5-4.5,4.5h-18c-2.484,0-4.5-2.015-4.5-4.5l0,0c0-2.485,2.016-4.5,4.5-4.5
		h18C105.333,18.427,107.348,20.441,107.348,22.927L107.348,22.927z"/>
</g>
<g>
	<path fill="#3021EC" d="M128.348,118.926h-114c-4.136,0-7.5-3.363-7.5-7.5v-60c0-4.136,3.364-7.5,7.5-7.5h29.379l8.561-8.561
		c0.563-0.563,1.559-0.563,2.121,0l8.561,8.561h65.379c4.135,0,7.5,3.364,7.5,7.5v60
		C135.848,115.563,132.484,118.926,128.348,118.926z M14.348,46.927c-2.481,0-4.5,2.019-4.5,4.5v60c0,2.482,2.019,4.5,4.5,4.5h114
		c2.481,0,4.5-2.018,4.5-4.5v-60c0-2.481-2.019-4.5-4.5-4.5h-66c-0.398,0-0.779-0.158-1.061-0.439l-7.939-7.939l-7.939,7.939
		c-0.281,0.281-0.663,0.439-1.061,0.439H14.348z"/>
</g>
<g>
	<path fill="#3021EC" d="M53.348,75.427c0,3.314-2.687,6-6,6h-24c-3.313,0-6-2.686-6-6v-15c0-3.313,2.687-6,6-6h24
		c3.313,0,6,2.688,6,6V75.427z"/>
</g>
<g>
	<path fill="#3021EC" d="M53.348,91.926h-36c-0.829,0-1.5-0.672-1.5-1.5c0-0.827,0.671-1.5,1.5-1.5h36c0.829,0,1.5,0.673,1.5,1.5
		C54.848,91.254,54.177,91.926,53.348,91.926z"/>
</g>
<g>
	<path fill="#3021EC" d="M35.348,100.926h-18c-0.829,0-1.5-0.672-1.5-1.5c0-0.827,0.671-1.5,1.5-1.5h18c0.829,0,1.5,0.673,1.5,1.5
		C36.848,100.254,36.177,100.926,35.348,100.926z"/>
</g>
<g>
	<path fill="#3021EC" d="M71.348,118.926c-0.828,0-1.5-0.672-1.5-1.5v-72c0-0.829,0.672-1.5,1.5-1.5c0.828,0,1.5,0.671,1.5,1.5v72
		C72.848,118.254,72.176,118.926,71.348,118.926z"/>
</g>
<g>
	<path fill="#3021EC" d="M107.348,64.927h-27c-0.828,0-1.5-0.671-1.5-1.5c0-0.829,0.672-1.5,1.5-1.5h27c0.828,0,1.5,0.671,1.5,1.5
		C108.848,64.256,108.176,64.927,107.348,64.927z"/>
</g>
<g>
	<path fill="#3021EC" d="M98.348,73.927h-18c-0.828,0-1.5-0.672-1.5-1.5c0-0.828,0.672-1.5,1.5-1.5h18c0.828,0,1.5,0.672,1.5,1.5
		C99.848,73.255,99.176,73.927,98.348,73.927z"/>
</g>
<g>
	<path fill="#3021EC" d="M101.348,82.926h-21c-0.828,0-1.5-0.672-1.5-1.5c0-0.827,0.672-1.5,1.5-1.5h21c0.828,0,1.5,0.673,1.5,1.5
		C102.848,82.254,102.176,82.926,101.348,82.926z"/>
</g>
<g>
	<path fill="#3021EC" d="M128.387,26.005c-2.503,0-4.539-2.036-4.539-4.539s2.036-4.539,4.539-4.539
		c2.504,0,4.539,2.036,4.539,4.539S130.891,26.005,128.387,26.005z M128.387,19.927c-0.849,0-1.539,0.69-1.539,1.539
		c0,0.849,0.69,1.539,1.539,1.539c0.85,0,1.539-0.69,1.539-1.539C129.926,20.617,129.236,19.927,128.387,19.927z"/>
</g>
</svg>
