<?xml version="1.0" encoding="utf-8"?>
<!-- Generator: Adobe Illustrator 16.0.0, SVG Export Plug-In . SVG Version: 6.00 Build 0)  -->
<!DOCTYPE svg PUBLIC "-//W3C//DTD SVG 1.1//EN" "http://www.w3.org/Graphics/SVG/1.1/DTD/svg11.dtd">
<svg version="1.1" id="Layer_150" xmlns="http://www.w3.org/2000/svg" xmlns:xlink="http://www.w3.org/1999/xlink" x="0px" y="0px"
	 width="145.326px" height="155.861px" viewBox="0 0 145.326 155.861" enable-background="new 0 0 145.326 155.861"
	 xml:space="preserve">
<g>
	<g>
		<path fill="#3021EC" d="M143.826,146.861H112c-0.829,0-1.5-0.672-1.5-1.5s0.671-1.5,1.5-1.5h31.826c0.829,0,1.5,0.672,1.5,1.5
			S144.655,146.861,143.826,146.861z"/>
	</g>
	<g>
		<path fill="#3021EC" d="M99.5,146.861H9.493c-0.829,0-1.5-0.672-1.5-1.5s0.671-1.5,1.5-1.5H99.5c0.829,0,1.5,0.672,1.5,1.5
			S100.329,146.861,99.5,146.861z"/>
	</g>
	<g>
		<path fill="#3021EC" d="M26.826,155.861h-25c-0.829,0-1.5-0.672-1.5-1.5s0.671-1.5,1.5-1.5h25c0.829,0,1.5,0.672,1.5,1.5
			S27.655,155.861,26.826,155.861z"/>
	</g>
	<g>
		<path fill="#3021EC" d="M117,83.302H27c-4.136,0-7.5-3.363-7.5-7.5v-48c0-4.136,3.364-7.5,7.5-7.5h90c4.136,0,7.5,3.364,7.5,7.5
			v48C124.5,79.938,121.136,83.302,117,83.302z M27,23.302c-2.481,0-4.5,2.02-4.5,4.5v48c0,2.481,2.019,4.5,4.5,4.5h90
			c2.481,0,4.5-2.019,4.5-4.5v-48c0-2.48-2.019-4.5-4.5-4.5H27z"/>
	</g>
	<g>
		<path fill="#3021EC" d="M90,101.302H54c-0.829,0-1.5-0.672-1.5-1.5c0-0.827,0.671-1.5,1.5-1.5c7.296,0,7.5-16.335,7.5-16.5
			c0-0.827,0.671-1.5,1.5-1.5s1.5,0.673,1.5,1.5c0,0.596-0.066,11.182-4.426,16.5h23.853c-4.359-5.318-4.426-15.904-4.426-16.5
			c0-0.827,0.671-1.498,1.5-1.5l0,0c0.828,0,1.5,0.672,1.5,1.499c0,0.165,0.219,16.501,7.5,16.501c0.829,0,1.5,0.673,1.5,1.5
			C91.501,100.631,90.829,101.302,90,101.302z"/>
	</g>
	<g>
		<path fill="#3021EC" d="M43.231,133.16c-0.257,0-0.514-0.066-0.744-0.197l-31.231-17.847c-0.48-0.274-0.771-0.791-0.755-1.345
			s0.334-1.054,0.829-1.3l26.769-13.385c0.449-0.223,0.98-0.208,1.415,0.039l31.231,17.847c0.48,0.273,0.771,0.791,0.755,1.345
			c-0.016,0.553-0.334,1.052-0.829,1.3l-26.769,13.385C43.69,133.107,43.46,133.16,43.231,133.16z M15.178,113.901l28.101,16.059
			l23.544-11.771L38.722,102.13L15.178,113.901z"/>
	</g>
	<g>
		<path fill="#3021EC" d="M61,92.302H9c-0.829,0-1.5-0.672-1.5-1.5c0-0.827,0.671-1.5,1.5-1.5h52c0.829,0,1.5,0.673,1.5,1.5
			C62.5,91.631,61.829,92.302,61,92.302z"/>
	</g>
	<g>
		<path fill="#3021EC" d="M135,92.302H83c-0.829,0-1.5-0.672-1.5-1.5c0-0.827,0.671-1.5,1.5-1.5h52c0.829,0,1.5,0.673,1.5,1.5
			C136.5,91.631,135.829,92.302,135,92.302z"/>
	</g>
	<g>
		<path fill="#3021EC" d="M109.601,126.302H89.547c-0.543,0-1.043-0.293-1.31-0.768c-0.266-0.474-0.254-1.054,0.031-1.517
			l13.854-22.601c0.271-0.443,0.757-0.716,1.279-0.716H122c0.53,0,1.021,0.279,1.291,0.736c0.271,0.456,0.278,1.021,0.024,1.484
			l-12.4,22.601C110.651,126.004,110.147,126.302,109.601,126.302z M92.226,123.302h16.486l10.754-19.6H104.24L92.226,123.302z"/>
	</g>
	<g opacity="0.1">
		<g>
			<path fill="#3021EC" d="M21,60.313c-0.895,1.621-2.6,2.731-4.582,2.731h-5.254c-2.901,0-5.254,2.354-5.254,5.254
				c0,2.902,2.353,5.253,5.254,5.253H21V60.313z"/>
		</g>
		<g>
			<path fill="#3021EC" d="M128.062,21.015h-4.601c-2.899,0-5.252-2.352-5.252-5.253c0-2.902,2.353-5.255,5.252-5.255h5.256
				c2.901,0,5.255-2.352,5.255-5.254c0-2.899-2.354-5.254-5.255-5.254H55.164c-2.902,0-5.254,2.354-5.254,5.254
				c0,2.902,2.352,5.254,5.254,5.254H91.94c2.899,0,5.252,2.353,5.252,5.255c0,2.901-2.353,5.253-5.252,5.253H15.761
				C7.057,21.015,0,28.071,0,36.776c0,8.706,7.057,15.762,15.762,15.762h0.656c1.982,0,3.688,1.11,4.582,2.731V27.802
				c0-3.313,2.687-6,6-6h90c3.313,0,6,2.688,6,6v24.735h5.062c8.705,0,15.762-7.056,15.762-15.762
				C143.821,28.071,136.767,21.015,128.062,21.015z"/>
		</g>
		<g>
			<path fill="#3021EC" d="M21,55.27v5.044c0.415-0.752,0.672-1.604,0.672-2.522C21.672,56.872,21.415,56.021,21,55.27z"/>
		</g>
	</g>
	<g>
		<path fill="#3021EC" d="M4.928,10.682c-2.588,0-4.693-2.105-4.693-4.693S2.34,1.295,4.928,1.295c2.589,0,4.695,2.105,4.695,4.693
			S7.517,10.682,4.928,10.682z M4.928,4.295c-0.934,0-1.693,0.761-1.693,1.693s0.76,1.693,1.693,1.693
			c0.935,0,1.695-0.761,1.695-1.693S5.863,4.295,4.928,4.295z"/>
	</g>
	<g opacity="0.6">
		<circle fill="#3021EC" cx="72" cy="45.802" r="9"/>
	</g>
	<g opacity="0.6">
		<path fill="#3021EC" d="M90,65.302H54c-0.829,0-1.5-0.672-1.5-1.5c0-0.827,0.671-1.5,1.5-1.5h36c0.829,0,1.5,0.673,1.5,1.5
			C91.5,64.631,90.829,65.302,90,65.302z"/>
	</g>
	<g opacity="0.6">
		<ellipse fill="#3021EC" cx="37" cy="113.302" rx="6.5" ry="3.25"/>
	</g>
	<g opacity="0.6">
		<path fill="#3021EC" d="M40.62,123.017c-0.361,0-0.71-0.196-0.889-0.539c-0.254-0.49-0.063-1.095,0.427-1.35l11.5-5.972
			c0.49-0.253,1.094-0.063,1.349,0.427c0.254,0.49,0.063,1.094-0.427,1.35l-11.5,5.972C40.933,122.98,40.775,123.017,40.62,123.017z
			"/>
	</g>
	<g opacity="0.6">
		
			<ellipse transform="matrix(-0.2868 -0.958 0.958 -0.2868 33.7433 245.2351)" fill="#3021EC" cx="108.158" cy="110.057" rx="2.496" ry="3.938"/>
	</g>
	<g opacity="0.6">
		<path fill="#3021EC" d="M108.159,117.689h-6.805c-0.553,0-1-0.447-1-1c0-0.554,0.447-1,1-1h6.805c0.552,0,1,0.446,1,1
			C109.159,117.242,108.711,117.689,108.159,117.689z"/>
	</g>
</g>
</svg>
