<?xml version="1.0" encoding="utf-8"?>
<!-- Generator: Adobe Illustrator 16.0.0, SVG Export Plug-In . SVG Version: 6.00 Build 0)  -->
<!DOCTYPE svg PUBLIC "-//W3C//DTD SVG 1.1//EN" "http://www.w3.org/Graphics/SVG/1.1/DTD/svg11.dtd">
<svg version="1.1" id="Layer_150" xmlns="http://www.w3.org/2000/svg" xmlns:xlink="http://www.w3.org/1999/xlink" x="0px" y="0px"
	 width="146.15px" height="155.146px" viewBox="0 0 146.15 155.146" enable-background="new 0 0 146.15 155.146"
	 xml:space="preserve">
<g>
	<path fill="#3021EC" d="M144.651,146.147H10.145c-0.829,0-1.5-0.672-1.5-1.5s0.671-1.5,1.5-1.5h134.507c0.828,0,1.5,0.672,1.5,1.5
		S145.479,146.147,144.651,146.147z"/>
</g>
<g>
	<path fill="#3021EC" d="M27.478,155.147h-25c-0.829,0-1.5-0.672-1.5-1.5s0.671-1.5,1.5-1.5h25c0.829,0,1.5,0.672,1.5,1.5
		S28.306,155.147,27.478,155.147z"/>
</g>
<g>
	<path fill="#3021EC" d="M90.651,122.394H15.867c-2.926,0-5.306-2.38-5.306-5.305V24.274c0-2.925,2.38-5.305,5.306-5.305h112.234
		c2.925,0,5.306,2.38,5.306,5.305v45.814c0,0.828-0.673,1.5-1.5,1.5c-0.828,0-1.5-0.672-1.5-1.5V24.274
		c0-1.271-1.034-2.305-2.306-2.305H15.867c-1.271,0-2.306,1.034-2.306,2.305v92.814c0,1.271,1.034,2.305,2.306,2.305h74.783
		c0.828,0,1.5,0.672,1.5,1.5S91.479,122.394,90.651,122.394z"/>
</g>
<g>
	<path fill="#3021EC" d="M131.907,33.384H12.063c-0.829,0-1.5-0.671-1.5-1.5s0.671-1.5,1.5-1.5h119.846c0.827,0,1.5,0.671,1.5,1.5
		S132.735,33.384,131.907,33.384z"/>
</g>
<g>
	<circle fill="#3021EC" cx="18.008" cy="26.272" r="1.545"/>
</g>
<g>
	<circle fill="#3021EC" cx="23.921" cy="26.272" r="1.546"/>
</g>
<g>
	<circle fill="#3021EC" cx="29.833" cy="26.272" r="1.546"/>
</g>
<g opacity="0.1">
	<g>
		<path fill="#3021EC" d="M11.229,63.499c-2.918,0-5.283,2.365-5.283,5.283s2.365,5.282,5.283,5.282h0.834V63.499H11.229z"/>
	</g>
	<g>
		<path fill="#3021EC" d="M118.89,15.942c0-2.92,2.367-5.284,5.283-5.284h5.285c2.918,0,5.285-2.365,5.285-5.283
			s-2.367-5.285-5.285-5.285H55.482c-2.92,0-5.285,2.367-5.285,5.285s2.365,5.283,5.285,5.283h36.989
			c2.916,0,5.281,2.364,5.281,5.284c0,1.935-1.049,3.605-2.601,4.527h26.336C119.94,19.548,118.89,17.876,118.89,15.942z"/>
	</g>
	<g>
		<path fill="#3021EC" d="M144.651,37.077c0-8.191-6.215-14.931-14.186-15.765c0.871,0.697,1.44,1.758,1.44,2.961v28.349
			C139.173,51.177,144.651,44.769,144.651,37.077z"/>
	</g>
	<g>
		<path fill="#3021EC" d="M13.35,21.442C5.787,22.646,0,29.177,0,37.077c0,7.446,5.141,13.676,12.063,15.377V24.274
			C12.063,23.144,12.566,22.14,13.35,21.442z"/>
	</g>
</g>
<g opacity="0.6">
	<path fill="#3021EC" d="M90.651,102.089c0,3.313-2.687,6-6,6h-15c-3.313,0-6-2.688-6-6v-15c0-3.313,2.688-6,6-6h15
		c3.313,0,6,2.687,6,6V102.089z"/>
</g>
<g opacity="0.6">
	<g>
		<path fill="#3021EC" d="M54.651,102.089c0,3.313-2.687,6-6,6h-15c-3.313,0-6-2.688-6-6v-15c0-3.313,2.688-6,6-6h15
			c3.313,0,6,2.687,6,6V102.089z"/>
	</g>
</g>
<g>
	<g>
		<path fill="#3021EC" d="M133.984,94.187h-17.833c-1.656,0-3-1.343-3-3c0-1.656,1.344-3,3-3h17.833c1.657,0,3,1.344,3,3
			C136.984,92.844,135.642,94.187,133.984,94.187z"/>
	</g>
</g>
<g>
	<path fill="#3021EC" d="M133.374,72.562h-17.224c-1.656,0-3,1.344-3,3c0,1.657,1.344,3,3,3h21.905
		C136.736,76.377,135.161,74.365,133.374,72.562z"/>
</g>
<g>
	<path fill="#3021EC" d="M110.651,128.589c-18.472,0-33.5-15.028-33.5-33.5s15.028-33.5,33.5-33.5c18.473,0,33.5,15.028,33.5,33.5
		S129.123,128.589,110.651,128.589z M110.651,64.589c-16.816,0-30.5,13.683-30.5,30.5s13.684,30.5,30.5,30.5
		c16.817,0,30.5-13.683,30.5-30.5S127.469,64.589,110.651,64.589z"/>
</g>
<g>
	<path fill="#3021EC" d="M78.651,95.089c0,9.492,4.138,18.015,10.701,23.875h0.757c5.753,0,10.417-4.664,10.417-10.417V82.506
		c0-5.753-4.664-10.417-10.417-10.417h-1.693C82.398,77.907,78.651,86.058,78.651,95.089z"/>
</g>
<g>
	<path fill="#3021EC" d="M141.466,103.812h-25.314c-1.656,0-3,1.344-3,3c0,1.657,1.344,3,3,3h22.959
		C140.088,107.914,140.88,105.906,141.466,103.812z"/>
</g>
<g>
	<path fill="#3021EC" d="M5.826,9.953c-2.744,0-4.978-2.232-4.978-4.978S3.082,0,5.826,0c2.743,0,4.977,2.231,4.977,4.977
		S8.57,9.953,5.826,9.953z M5.826,3C4.736,3,3.85,3.887,3.85,4.977s0.887,1.978,1.978,1.978c1.09,0,1.977-0.888,1.977-1.978
		S6.916,3,5.826,3z"/>
</g>
<g opacity="0.6">
	<g>
		<path fill="#3021EC" d="M117.651,63.866V51.089c0-3.313-2.687-6-6-6h-78c-3.313,0-6,2.687-6,6v15c0,3.313,2.688,6,6,6h54.765
			c5.758-5.568,13.594-9,22.235-9C113.057,63.089,115.397,63.363,117.651,63.866z"/>
	</g>
</g>
</svg>
