<?xml version="1.0" encoding="utf-8"?>
<!-- Generator: Adobe Illustrator 16.0.0, SVG Export Plug-In . SVG Version: 6.00 Build 0)  -->
<!DOCTYPE svg PUBLIC "-//W3C//DTD SVG 1.1//EN" "http://www.w3.org/Graphics/SVG/1.1/DTD/svg11.dtd">
<svg version="1.1" id="Layer_150" xmlns="http://www.w3.org/2000/svg" xmlns:xlink="http://www.w3.org/1999/xlink" x="0px" y="0px"
	 width="145.861px" height="147px" viewBox="0 0 145.861 147" enable-background="new 0 0 145.861 147" xml:space="preserve">
<g>
	<path fill="#3021EC" d="M143.5,138h-44c-0.828,0-1.5-0.672-1.5-1.5s0.672-1.5,1.5-1.5h44c0.828,0,1.5,0.672,1.5,1.5
		S144.328,138,143.5,138z"/>
</g>
<g>
	<path fill="#3021EC" d="M90,138H28.5c-0.829,0-1.5-0.672-1.5-1.5s0.671-1.5,1.5-1.5H90c0.828,0,1.5,0.672,1.5,1.5
		S90.828,138,90,138z"/>
</g>
<g>
	<path fill="#3021EC" d="M26.5,147h-25c-0.829,0-1.5-0.672-1.5-1.5s0.671-1.5,1.5-1.5h25c0.829,0,1.5,0.672,1.5,1.5
		S27.329,147,26.5,147z"/>
</g>
<g>
	<path fill="#3021EC" d="M31.5,120h-15c-4.137,0-7.5-3.364-7.5-7.5v-15c0-4.136,3.363-7.5,7.5-7.5h15c4.136,0,7.5,3.364,7.5,7.5v15
		C39,116.636,35.636,120,31.5,120z M16.5,93c-2.481,0-4.5,2.02-4.5,4.5v15c0,2.48,2.019,4.5,4.5,4.5h15c2.48,0,4.5-2.02,4.5-4.5v-15
		c0-2.48-2.02-4.5-4.5-4.5H16.5z"/>
</g>
<g opacity="0.6">
	<path fill="#3021EC" d="M87.5,112.5c0,3.313-2.688,6-6,6h-15c-3.313,0-6-2.688-6-6v-15c0-3.313,2.687-6,6-6h15c3.313,0,6,2.688,6,6
		V112.5z"/>
	<path fill="#3021EC" d="M81.5,120h-15c-4.137,0-7.5-3.364-7.5-7.5v-15c0-4.136,3.363-7.5,7.5-7.5h15c4.136,0,7.5,3.364,7.5,7.5v15
		C89,116.636,85.636,120,81.5,120z M66.5,93c-2.481,0-4.5,2.02-4.5,4.5v15c0,2.48,2.019,4.5,4.5,4.5h15c2.48,0,4.5-2.02,4.5-4.5v-15
		c0-2.48-2.02-4.5-4.5-4.5H66.5z"/>
</g>
<g>
	<path fill="#3021EC" d="M130.5,120h-15c-4.137,0-7.5-3.364-7.5-7.5v-15c0-4.136,3.363-7.5,7.5-7.5h15c4.136,0,7.5,3.364,7.5,7.5v15
		C138,116.636,134.636,120,130.5,120z M115.5,93c-2.481,0-4.5,2.02-4.5,4.5v15c0,2.48,2.019,4.5,4.5,4.5h15c2.48,0,4.5-2.02,4.5-4.5
		v-15c0-2.48-2.02-4.5-4.5-4.5H115.5z"/>
</g>
<g>
	<path fill="#3021EC" d="M73.5,91c-0.828,0-1.5-0.672-1.5-1.5V49.149L30,74.35v8.149c0,0.828-0.671,1.5-1.5,1.5S27,83.328,27,82.5
		v-9c0-0.527,0.275-1.016,0.728-1.286l45-27c0.464-0.277,1.041-0.285,1.511-0.019C74.709,45.461,75,45.959,75,46.5v43
		C75,90.328,74.328,91,73.5,91z"/>
</g>
<g>
	<path fill="#3021EC" d="M118.5,84c-0.828,0-1.5-0.672-1.5-1.5v-8.15L72.729,47.786c-0.711-0.426-0.94-1.348-0.515-2.058
		s1.35-0.94,2.058-0.514l45,27c0.452,0.27,0.729,0.759,0.729,1.286v9C120,83.328,119.328,84,118.5,84z"/>
</g>
<g>
	<path fill="#3021EC" d="M73.5,39C62.748,39,54,30.252,54,19.5S62.748,0,73.5,0S93,8.748,93,19.5S84.252,39,73.5,39z M73.5,3
		C64.402,3,57,10.402,57,19.5S64.402,36,73.5,36C82.598,36,90,28.598,90,19.5S82.598,3,73.5,3z"/>
</g>
<g>
	<g>
		<path fill="#3021EC" d="M68.817,24.51l0.463-0.653c0.337-0.463,0.736-0.505,1.222-0.189c0.631,0.441,1.704,1.052,3.01,1.052
			c1.136,0,2.188-0.589,2.188-1.81c0-2.525-7.114-2.273-7.114-6.798c0-2.168,1.621-3.852,3.957-4.23v-1.115
			c0-0.568,0.253-0.863,0.842-0.863h0.147c0.547,0,0.82,0.252,0.82,0.737v1.199c1.452,0.105,2.482,0.653,3.052,1.053
			c0.464,0.273,0.506,0.715,0.253,1.179l-0.357,0.715c-0.273,0.505-0.674,0.568-1.2,0.273c-0.547-0.336-1.452-0.779-2.524-0.779
			c-1.264,0-2.272,0.737-2.272,1.789c0,2.504,7.113,2.063,7.113,6.777c0,2.147-1.494,3.978-4.063,4.314v1.053
			c0,0.568-0.273,0.883-0.82,0.883h-0.147c-0.589,0-0.842-0.273-0.842-0.736v-1.2c-1.727-0.189-2.946-0.947-3.577-1.431
			C68.522,25.415,68.501,24.951,68.817,24.51z"/>
	</g>
</g>
<g opacity="0.1">
	<g>
		<path fill="#3021EC" d="M144.263,76.271L91.131,23.14c-0.792,3.86-2.834,7.255-5.666,9.782l46.156,46.156l-22.117-22.116
			c2.132,2.131,2.132,5.59-0.001,7.723c-2.133,2.134-5.591,2.132-7.723,0.001l21.852,21.852l-49.089-49.09
			c-0.349,0.02-0.691,0.053-1.043,0.053c-9.941,0-18-8.059-18-18c0-0.352,0.033-0.696,0.053-1.043L45.78,8.685
			c-6.398-6.399-16.773-6.399-23.174,0c-6.399,6.4-6.398,16.774,0,23.174l0.485,0.485c0,0-0.001-0.001-0.002-0.002l30.896,30.896
			c-0.001-0.001-0.002-0.002-0.003-0.003l51.177,51.176c4.427,4.428,10.753,5.787,16.353,4.09H115.5c-3.313,0-6-2.687-6-6v-15
			c0-3.313,2.687-6,6-6h13.068c-0.082-0.086-0.152-0.179-0.236-0.263l-3.381-3.381c-2.132-2.131-2.134-5.59,0.001-7.723
			c2.133-2.135,5.592-2.134,7.723-0.003l3.864,3.864c2.133,2.133,5.591,2.133,7.724,0C146.396,81.864,146.396,78.404,144.263,76.271
			z"/>
	</g>
	<g>
		<path fill="#3021EC" d="M15.37,40.069l-3.867-3.867c-2.133-2.132-5.592-2.133-7.726,0c-2.134,2.134-2.132,5.592,0,7.724
			l34.76,34.76c2.134,2.133,5.589,2.133,7.723,0c2.133-2.134,2.134-5.591,0-7.725L15.365,40.065
			C15.366,40.067,15.368,40.068,15.37,40.069z"/>
	</g>
	<g>
		<path fill="#3021EC" d="M23.09,40.064c-2.132,2.132-5.586,2.133-7.72,0.005l30.892,30.893c-2.133-2.132-2.133-5.592,0.001-7.726
			c2.131-2.131,5.587-2.13,7.72-0.002L23.091,32.343C25.223,34.477,25.222,37.933,23.09,40.064z"/>
	</g>
</g>
<g>
	<path fill="#3021EC" d="M127.53,12c-0.828,0-1.505-0.671-1.505-1.5S126.691,9,127.52,9h0.012c0.827,0,1.5,0.671,1.5,1.5
		S128.358,12,127.53,12z"/>
</g>
<g>
	<path fill="#3021EC" d="M123,57c-3.31,0-6-2.691-6-6s2.69-6,6-6c3.309,0,6,2.691,6,6S126.309,57,123,57z M123,48
		c-1.654,0-3,1.346-3,3s1.346,3,3,3c1.653,0,3-1.346,3-3S124.654,48,123,48z"/>
</g>
</svg>
