<?xml version="1.0" encoding="utf-8"?>
<!-- Generator: Adobe Illustrator 16.0.0, SVG Export Plug-In . SVG Version: 6.00 Build 0)  -->
<!DOCTYPE svg PUBLIC "-//W3C//DTD SVG 1.1//EN" "http://www.w3.org/Graphics/SVG/1.1/DTD/svg11.dtd">
<svg version="1.1" id="Layer_150" xmlns="http://www.w3.org/2000/svg" xmlns:xlink="http://www.w3.org/1999/xlink" x="0px" y="0px"
	 width="145.368px" height="155.059px" viewBox="0 0 145.368 155.059" enable-background="new 0 0 145.368 155.059"
	 xml:space="preserve">
<g>
	<path fill="#3021EC" d="M143.868,146.059h-99c-0.829,0-1.5-0.672-1.5-1.5s0.671-1.5,1.5-1.5h99c0.828,0,1.5,0.672,1.5,1.5
		S144.696,146.059,143.868,146.059z"/>
</g>
<g>
	<path fill="#3021EC" d="M26.694,155.059h-25c-0.829,0-1.5-0.672-1.5-1.5s0.671-1.5,1.5-1.5h25c0.829,0,1.5,0.672,1.5,1.5
		S27.523,155.059,26.694,155.059z"/>
</g>
<g>
	<path fill="#3021EC" d="M14.868,75.445c-5.742,0-10.413-4.671-10.413-10.412c0-5.742,4.671-10.412,10.413-10.412
		c5.741,0,10.412,4.671,10.412,10.413C25.28,70.775,20.609,75.445,14.868,75.445z M14.868,57.62c-4.087,0-7.413,3.325-7.413,7.413
		c0,4.087,3.325,7.412,7.413,7.412c4.087,0,7.412-3.324,7.412-7.412C22.28,60.945,18.955,57.62,14.868,57.62z"/>
</g>
<g>
	<path fill="#3021EC" d="M14.867,57.62c-0.244,0-0.492-0.061-0.722-0.188c-0.726-0.398-0.99-1.312-0.591-2.037l5-9.087
		c0.399-0.726,1.31-0.993,2.037-0.591c0.726,0.399,0.99,1.313,0.591,2.037l-5,9.087C15.909,57.339,15.396,57.62,14.867,57.62z"/>
</g>
<g>
	<path fill="#3021EC" d="M8.566,60.23c-0.384,0-0.768-0.146-1.061-0.438L4.354,56.64c-0.586-0.585-0.586-1.536,0-2.121
		c0.586-0.586,1.535-0.586,2.121,0l3.151,3.151c0.586,0.585,0.586,1.536,0,2.121C9.334,60.084,8.95,60.23,8.566,60.23z"/>
</g>
<g>
	<path fill="#3021EC" d="M5.956,66.533H1.5c-0.829,0-1.5-0.672-1.5-1.5c0-0.829,0.671-1.5,1.5-1.5h4.456c0.829,0,1.5,0.671,1.5,1.5
		C7.456,65.862,6.785,66.533,5.956,66.533z"/>
</g>
<g>
	<path fill="#3021EC" d="M5.416,75.984c-0.384,0-0.768-0.146-1.061-0.438c-0.586-0.586-0.586-1.535,0-2.121l3.151-3.15
		c0.586-0.586,1.536-0.586,2.121,0c0.586,0.586,0.586,1.535,0,2.121l-3.151,3.15C6.183,75.838,5.799,75.984,5.416,75.984z"/>
</g>
<g>
	<path fill="#3021EC" d="M19.87,84.533c-0.529,0-1.042-0.28-1.316-0.777l-5.001-9.09c-0.399-0.727-0.134-1.639,0.591-2.037
		c0.727-0.399,1.638-0.135,2.038,0.592l5.001,9.09c0.399,0.727,0.134,1.639-0.591,2.037C20.362,84.474,20.114,84.533,19.87,84.533z"
		/>
</g>
<g>
	<path fill="#3021EC" d="M24.321,75.984c-0.384,0-0.768-0.146-1.061-0.438l-3.152-3.15c-0.586-0.585-0.586-1.535,0-2.121
		s1.536-0.586,2.122,0l3.152,3.15c0.586,0.585,0.586,1.535,0,2.121C25.089,75.838,24.705,75.984,24.321,75.984z"/>
</g>
<g>
	<path fill="#3021EC" d="M23.78,66.533c-0.829,0-1.5-0.672-1.5-1.5c0-0.829,0.671-1.5,1.5-1.5l4.457-0.001
		c0.829,0,1.5,0.671,1.5,1.5c0,0.828-0.671,1.5-1.5,1.5L23.78,66.533z"/>
</g>
<g>
	<path fill="#3021EC" d="M21.169,60.231c-0.384,0-0.768-0.146-1.061-0.438c-0.586-0.585-0.586-1.535,0-2.121l3.151-3.152
		c0.585-0.586,1.535-0.586,2.121,0c0.586,0.585,0.586,1.535,0,2.121l-3.151,3.152C21.937,60.084,21.553,60.231,21.169,60.231z"/>
</g>
<g>
	<path fill="#3021EC" d="M71.118,84.533h-51.25c-0.829,0-1.5-0.673-1.5-1.5c0-0.828,0.671-1.5,1.5-1.5h51.25
		c0.828,0,1.5,0.672,1.5,1.5C72.618,83.861,71.946,84.533,71.118,84.533z"/>
</g>
<g>
	<path fill="#3021EC" d="M124.868,84.533h-16.25c-0.828,0-1.5-0.673-1.5-1.5c0-0.828,0.672-1.5,1.5-1.5h16.25
		c9.098,0,16.5-7.402,16.5-16.5c0-9.099-7.402-16.5-16.5-16.5h-105c-0.829,0-1.5-0.672-1.5-1.5c0-0.829,0.671-1.5,1.5-1.5h105
		c10.752,0,19.5,8.748,19.5,19.5S135.62,84.533,124.868,84.533z"/>
</g>
<g>
	<path fill="#3021EC" d="M89.868,102.533c-10.752,0-19.5-8.748-19.5-19.5c0-10.753,8.748-19.5,19.5-19.5s19.5,8.748,19.5,19.5
		S100.62,102.533,89.868,102.533z M89.868,66.533c-9.098,0-16.5,7.401-16.5,16.5c0,9.098,7.402,16.5,16.5,16.5s16.5-7.402,16.5-16.5
		C106.368,73.935,98.965,66.533,89.868,66.533z"/>
</g>
<g>
	<path fill="#3021EC" d="M120.868,116.533c-0.64,0-1.279-0.244-1.768-0.732l-17.438-17.438c-0.978-0.977-0.978-2.559,0-3.534
		c0.977-0.977,2.559-0.978,3.534,0l17.438,17.438c0.977,0.978,0.977,2.56,0,3.535C122.147,116.289,121.508,116.533,120.868,116.533z
		"/>
</g>
<g opacity="0.6">
	<rect x="35.868" y="55.825" fill="#3021EC" width="3.667" height="18.208"/>
</g>
<g opacity="0.1">
	<g>
		<path fill="#3021EC" d="M93.883,12.367l3.863-3.376c2.133-1.864,2.353-5.104,0.487-7.237c-1.864-2.132-5.104-2.352-7.237-0.487
			L38.632,47.033H54.22l16.497-14.418c-0.001,0-0.001,0-0.001,0L93.883,12.367z"/>
	</g>
	<g>
		<path fill="#3021EC" d="M76.813,95.402L48.954,119.75l0,0l-3.862,3.375c-2.132,1.862-2.351,5.104-0.487,7.238
			c1.864,2.133,5.104,2.35,7.236,0.483l34.513-30.164C82.629,99.948,79.327,98.053,76.813,95.402z"/>
	</g>
	<g>
		<path fill="#3021EC" d="M75.549,93.91c-1.1-0.201-2.146-0.74-2.938-1.648c-1.528-1.75-1.634-4.234-0.453-6.102
			c-0.016-0.093-0.027-0.185-0.042-0.275l-29.912,26.143c2.133-1.864,5.373-1.646,7.237,0.484c1.864,2.135,1.647,5.373-0.486,7.238
			l27.859-24.349C76.366,94.928,75.945,94.43,75.549,93.91z"/>
	</g>
	<g>
		<path fill="#3021EC" d="M93.399,19.603c-1.863-2.133-1.646-5.374,0.484-7.235L70.717,32.615c2.13-1.862,5.37-1.646,7.235,0.488
			c1.862,2.132,1.646,5.37-0.482,7.232l23.162-20.244C98.5,21.952,95.263,21.735,93.399,19.603z"/>
	</g>
	<g>
		<path fill="#3021EC" d="M28.615,83.033l-7.145,6.243c-6.398,5.593-7.052,15.313-1.46,21.711c5.593,6.398,15.313,7.054,21.711,1.46
			l30.394-26.563c-0.148-0.932-0.247-1.879-0.247-2.852L28.615,83.033L28.615,83.033z"/>
	</g>
	<g>
		<path fill="#3021EC" d="M125.726,18.595c-5.593-6.399-15.313-7.053-21.711-1.46l-3.384,2.957c0.002-0.001,0.002-0.001,0.002-0.001
			L77.465,40.338c0.002-0.001,0.002-0.002,0.004-0.003l-7.663,6.697h46.764l7.696-6.728
			C130.665,34.714,131.319,24.995,125.726,18.595z"/>
	</g>
	<g>
		<path fill="#3021EC" d="M76.813,95.402l3.036-2.651L76.813,95.402z"/>
	</g>
</g>
<g>
	<path fill="#3021EC" d="M87.391,89.49c-0.396,0-0.779-0.158-1.061-0.439l-4.957-4.956c-0.586-0.586-0.586-1.535,0-2.121
		s1.535-0.586,2.121,0l3.896,3.896l8.852-8.853c0.586-0.586,1.534-0.586,2.12,0c0.587,0.586,0.587,1.535,0,2.121l-9.911,9.912
		C88.17,89.331,87.788,89.49,87.391,89.49z"/>
</g>
<g>
	<path fill="#3021EC" d="M112.368,37.5c-3.309,0-6-2.691-6-6c0-3.31,2.691-6,6-6s6,2.69,6,6
		C118.368,34.809,115.676,37.5,112.368,37.5z M112.368,28.5c-1.654,0-3,1.346-3,3c0,1.653,1.346,3,3,3s3-1.347,3-3
		C115.368,29.846,114.022,28.5,112.368,28.5z"/>
</g>
<g>
	<path fill="#3021EC" d="M26.868,118.5c-0.384,0-0.768-0.146-1.061-0.439c-0.586-0.586-0.586-1.535,0-2.121l9-9
		c0.586-0.586,1.535-0.586,2.121,0c0.586,0.586,0.586,1.535,0,2.121l-9,9C27.636,118.354,27.252,118.5,26.868,118.5z"/>
</g>
<g>
	<path fill="#3021EC" d="M26.868,127.5c-0.384,0-0.768-0.146-1.061-0.439c-0.586-0.586-0.586-1.535,0-2.121l9-9
		c0.586-0.586,1.535-0.586,2.121,0c0.586,0.586,0.586,1.535,0,2.121l-9,9C27.636,127.354,27.252,127.5,26.868,127.5z"/>
</g>
</svg>
