<?xml version="1.0" encoding="utf-8"?>
<!-- Generator: Adobe Illustrator 16.0.0, SVG Export Plug-In . SVG Version: 6.00 Build 0)  -->
<!DOCTYPE svg PUBLIC "-//W3C//DTD SVG 1.1//EN" "http://www.w3.org/Graphics/SVG/1.1/DTD/svg11.dtd">
<svg version="1.1" id="Layer_150" xmlns="http://www.w3.org/2000/svg" xmlns:xlink="http://www.w3.org/1999/xlink" x="0px" y="0px"
	 width="145px" height="153.96px" viewBox="0 0 145 153.96" enable-background="new 0 0 145 153.96" xml:space="preserve">
<g>
	<path fill="#3021EC" d="M143.5,144.96h-31.826c-0.828,0-1.5-0.672-1.5-1.5s0.672-1.5,1.5-1.5H143.5c0.828,0,1.5,0.672,1.5,1.5
		S144.329,144.96,143.5,144.96z"/>
</g>
<g>
	<path fill="#3021EC" d="M102.174,144.96H9.167c-0.829,0-1.5-0.672-1.5-1.5s0.671-1.5,1.5-1.5h93.007c0.828,0,1.5,0.672,1.5,1.5
		S103.002,144.96,102.174,144.96z"/>
</g>
<g>
	<path fill="#3021EC" d="M26.5,153.96h-25c-0.829,0-1.5-0.672-1.5-1.5s0.671-1.5,1.5-1.5h25c0.829,0,1.5,0.672,1.5,1.5
		S27.329,153.96,26.5,153.96z"/>
</g>
<g>
	<path fill="#3021EC" d="M95.348,117.96h-50c-19.277,0-19.5-19.305-19.5-19.5c0-0.828,0.671-1.5,1.5-1.5h54
		c0.828,0,1.5,0.672,1.5,1.5c0,16.313,11.989,16.5,12.5,16.5c3.631,0,6.521-1.125,8.592-3.346
		c4.434-4.753,3.918-12.969,3.912-13.052c-0.002-0.034-0.004-0.067-0.004-0.104v-63c0-3.473,1.201-5.878,2.864-7.5H55.348
		c-0.829,0-1.5-0.671-1.5-1.5s0.671-1.5,1.5-1.5h63c0.828,0,1.5,0.671,1.5,1.5s-0.672,1.5-1.5,1.5c-0.763,0.006-7.5,0.264-7.5,7.5
		v62.953c0.053,0.866,0.443,9.719-4.716,15.25C103.473,116.514,99.843,117.96,95.348,117.96z M28.947,99.96
		c0.447,4.088,2.906,15,16.401,15h41.487c-3.399-2.453-6.604-6.906-6.955-15H28.947z"/>
</g>
<g>
	<path fill="#3021EC" d="M36.348,99.96c-0.829,0-1.5-0.672-1.5-1.5v-32c0-0.829,0.671-1.5,1.5-1.5c0.829,0,1.5,0.671,1.5,1.5v32
		C37.848,99.289,37.177,99.96,36.348,99.96z"/>
</g>
<g>
	<path fill="#3021EC" d="M129.348,45.96h-20c-0.828,0-1.5-0.671-1.5-1.5s0.672-1.5,1.5-1.5h18.473
		c-0.545-14.679-9.107-14.994-9.483-15c-0.823-0.014-1.487-0.688-1.481-1.512c0.006-0.824,0.67-1.488,1.494-1.488
		c0.125,0,12.5,0.223,12.5,19.5C130.848,45.289,130.176,45.96,129.348,45.96z"/>
</g>
<g>
	<path fill="#3021EC" d="M37.807,67.96c-10.339,0-18.75-8.411-18.75-18.75v-8.625c0-3.502,2.116-10.125,10.125-10.125h17.25
		c3.502,0,10.125,2.116,10.125,10.125v8.625C56.557,59.549,48.146,67.96,37.807,67.96z M29.182,33.46
		c-7.044,0-7.125,6.834-7.125,7.125v8.625c0,8.685,7.065,15.75,15.75,15.75s15.75-7.065,15.75-15.75v-8.625
		c0-7.044-6.834-7.125-7.125-7.125H29.182z"/>
</g>
<g>
	<path fill="#3021EC" d="M54.728,52.586c5.484-3.954,7.037-9.795,7.037-16.313c0-11.909-9.668-21.563-23.958-21.563
		c-14.291,0-23.958,9.654-23.958,21.563c0,6.517,1.553,12.358,7.036,16.312l-0.208-13.252c0,0,0.718-7.328,7.786-7.35l19.517,0.149
		c0,0,7.077-0.171,7.077,8.454L54.728,52.586z"/>
</g>
<g>
	<circle fill="#3021EC" cx="30.2" cy="45.197" r="1.737"/>
</g>
<g>
	<circle fill="#3021EC" cx="45.533" cy="45.197" r="1.737"/>
</g>
<g>
	<path fill="#3021EC" d="M38.061,58.603c-2.606,0-4.879-1.384-6.094-2.569c-0.593-0.579-0.605-1.528-0.026-2.121
		c0.577-0.593,1.524-0.605,2.117-0.03c0.405,0.386,4,3.616,7.599,0.017c0.586-0.586,1.535-0.586,2.121,0
		c0.586,0.585,0.586,1.536,0,2.121C41.876,57.924,39.887,58.603,38.061,58.603z"/>
</g>
<g>
	<path fill="#3021EC" d="M89.348,55.96h-25c-0.829,0-1.5-0.671-1.5-1.5s0.671-1.5,1.5-1.5h25c0.828,0,1.5,0.671,1.5,1.5
		S90.176,55.96,89.348,55.96z"/>
</g>
<g>
	<path fill="#3021EC" d="M89.348,68.96h-34c-0.829,0-1.5-0.671-1.5-1.5s0.671-1.5,1.5-1.5h34c0.828,0,1.5,0.671,1.5,1.5
		S90.176,68.96,89.348,68.96z"/>
</g>
<g>
	<path fill="#3021EC" d="M80.348,81.96h-25c-0.829,0-1.5-0.672-1.5-1.5s0.671-1.5,1.5-1.5h25c0.828,0,1.5,0.672,1.5,1.5
		S81.176,81.96,80.348,81.96z"/>
</g>
<g>
	<path fill="#3021EC" d="M129.348,55.669c-0.828,0-1.5-0.671-1.5-1.5v-9c0-0.829,0.672-1.5,1.5-1.5s1.5,0.671,1.5,1.5v9
		C130.848,54.998,130.176,55.669,129.348,55.669z"/>
</g>
<g>
	<path fill="#3021EC" d="M129.348,65.669c-0.828,0-1.5-0.671-1.5-1.5v-4c0-0.829,0.672-1.5,1.5-1.5s1.5,0.671,1.5,1.5v4
		C130.848,64.998,130.176,65.669,129.348,65.669z"/>
</g>
<g>
	<path fill="#3021EC" d="M122.348,65.669c-0.828,0-1.5-0.671-1.5-1.5v-19c0-0.829,0.672-1.5,1.5-1.5s1.5,0.671,1.5,1.5v19
		C123.848,64.998,123.176,65.669,122.348,65.669z"/>
</g>
<g>
	<path fill="#3021EC" d="M122.348,75.669c-0.828,0-1.5-0.672-1.5-1.5v-4c0-0.828,0.672-1.5,1.5-1.5s1.5,0.672,1.5,1.5v4
		C123.848,74.998,123.176,75.669,122.348,75.669z"/>
</g>
<g opacity="0.1">
	<g>
		<path fill="#3021EC" d="M85.299,12.383l3.628-3.628c2.003-2.002,2.003-5.25,0-7.253c-2.003-2.002-5.251-2.002-7.253,0
			l-25.29,25.29l14.593-0.088L85.299,12.383z"/>
	</g>
	<g>
		<path fill="#3021EC" d="M48.445,116.302c1.168,1.969,0.924,4.545-0.77,6.236l-3.626,3.627c-2.003,2.004-2.004,5.25,0,7.254
			c2.003,2.004,5.25,2.002,7.252,0l18.185-18.186L48.445,116.302z"/>
	</g>
	<g>
		<path fill="#3021EC" d="M85.57,26.617l6.979-6.979c-2.001,1.999-5.245,2-7.249-0.003c-2.003-2.003-2.002-5.25-0.001-7.252
			L70.978,26.705L85.57,26.617z"/>
	</g>
	<g>
		<path fill="#3021EC" d="M85.57,26.617l26.104-0.157c0,0,6.626-1.173,10.292,0.296c-0.142-3.74-1.624-7.439-4.479-10.295
			c-6.01-6.009-15.752-6.009-21.76,0l-3.179,3.177c0.001,0,0.002-0.001,0.003-0.002L85.57,26.617z"/>
	</g>
	<g>
		<path fill="#3021EC" d="M27.348,98.46l7.5,0.166l0.917-0.75l0.833-2l-0.17-20.116L18.209,93.979c-6.01,6.009-6.01,15.751,0,21.761
			c6.01,6.01,15.751,6.008,21.76,0l0.093-0.093C35.095,114.171,28.287,110.035,27.348,98.46z"/>
	</g>
</g>
<g>
	<path fill="#3021EC" d="M119.127,126.96c-2.359,0-4.279-1.92-4.279-4.279s1.92-4.279,4.279-4.279s4.279,1.92,4.279,4.279
		S121.486,126.96,119.127,126.96z M119.127,121.402c-0.705,0-1.279,0.574-1.279,1.279s0.574,1.279,1.279,1.279
		s1.279-0.574,1.279-1.279S119.833,121.402,119.127,121.402z"/>
</g>
</svg>
