<?xml version="1.0" encoding="utf-8"?>
<!-- Generator: Adobe Illustrator 16.0.0, SVG Export Plug-In . SVG Version: 6.00 Build 0)  -->
<!DOCTYPE svg PUBLIC "-//W3C//DTD SVG 1.1//EN" "http://www.w3.org/Graphics/SVG/1.1/DTD/svg11.dtd">
<svg version="1.1" id="Layer_150" xmlns="http://www.w3.org/2000/svg" xmlns:xlink="http://www.w3.org/1999/xlink" x="0px" y="0px"
	 width="145px" height="153.895px" viewBox="0 0 145 153.895" enable-background="new 0 0 145 153.895" xml:space="preserve">
<g opacity="0.1">
	<g>
		<path fill="#3021EC" d="M71.413,33.314l16.503-25.39c1.543-2.375,0.87-5.551-1.506-7.095c-2.374-1.543-5.553-0.869-7.096,1.505
			L40.186,62.538c-1.544,2.376-0.869,5.553,1.505,7.096c2.375,1.544,5.552,0.87,7.095-1.506l19.565-30.104l0,0L71.413,33.314z"/>
	</g>
	<g>
		<path fill="#3021EC" d="M71.177,127.792c0.001-0.001,0.001-0.003,0.002-0.004l-2.798,4.305c-1.543,2.374-0.869,5.552,1.506,7.095
			c2.376,1.545,5.552,0.869,7.095-1.505l24.119-37.109c-4.306,4.199-10.181,6.797-16.666,6.819L71.177,127.792z"/>
	</g>
	<g>
		<path fill="#3021EC" d="M84.348,107.395c-3.789,0-7.371-0.881-10.559-2.444l-11.213,17.253c1.543-2.376,4.721-3.05,7.095-1.506
			c2.374,1.543,3.049,4.716,1.508,7.092l13.256-20.396C84.407,107.393,84.377,107.395,84.348,107.395z"/>
	</g>
	<g>
		<path fill="#3021EC" d="M93.719,17.815c-1.542,2.373-4.718,3.048-7.094,1.504c-2.375-1.544-3.049-4.721-1.506-7.094L71.413,33.314
			l-3.062,4.71c1.544-2.373,4.719-3.047,7.094-1.503c0.181,0.117,0.33,0.26,0.49,0.394c1.985-0.744,4.099-1.229,6.295-1.421
			L93.719,17.815z"/>
	</g>
	<g>
		<path fill="#3021EC" d="M117.452,9.534c-7.124-4.632-16.654-2.609-21.285,4.517L82.23,35.493c0.697-0.063,1.403-0.1,2.117-0.1
			c11.068,0,20.381,7.494,23.154,17.685l14.466-22.259C126.6,23.695,124.579,14.167,117.452,9.534z"/>
	</g>
	<g>
		<path fill="#3021EC" d="M60.348,83.395V69.16l-23.923,36.809c-4.631,7.126-2.609,16.656,4.516,21.286
			c7.127,4.633,16.655,2.609,21.286-4.516l11.563-17.79C65.83,101.042,60.348,92.86,60.348,83.395z"/>
	</g>
	<g>
		<polygon fill="#3021EC" points="82.23,35.493 82.23,35.493 80.756,37.761 		"/>
	</g>
</g>
<g>
	<path fill="#3021EC" d="M143.5,144.895h-31.826c-0.828,0-1.5-0.672-1.5-1.5s0.672-1.5,1.5-1.5H143.5c0.828,0,1.5,0.672,1.5,1.5
		S144.329,144.895,143.5,144.895z"/>
</g>
<g>
	<path fill="#3021EC" d="M102.174,144.895H9.167c-0.829,0-1.5-0.672-1.5-1.5s0.671-1.5,1.5-1.5h93.007c0.828,0,1.5,0.672,1.5,1.5
		S103.002,144.895,102.174,144.895z"/>
</g>
<g>
	<path fill="#3021EC" d="M26.5,153.895h-25c-0.829,0-1.5-0.672-1.5-1.5s0.671-1.5,1.5-1.5h25c0.829,0,1.5,0.672,1.5,1.5
		S27.329,153.895,26.5,153.895z"/>
</g>
<g>
	<path fill="#3021EC" d="M84.348,108.895c-14.061,0-25.5-11.438-25.5-25.5v-24c0-14.061,11.439-25.5,25.5-25.5
		c14.062,0,25.5,11.439,25.5,25.5v24C109.848,97.455,98.409,108.895,84.348,108.895z M84.348,36.895
		c-12.406,0-22.5,10.093-22.5,22.5v24c0,12.406,10.094,22.5,22.5,22.5c12.406,0,22.5-10.094,22.5-22.5v-24
		C106.848,46.988,96.754,36.895,84.348,36.895z"/>
</g>
<g>
	<path fill="#3021EC" d="M83.848,73.895c-3.309,0-6-2.69-6-6v-9c0-3.309,2.691-6,6-6c3.31,0,6,2.691,6,6v9
		C89.848,71.203,87.157,73.895,83.848,73.895z M83.848,55.895c-1.654,0-3,1.347-3,3v9c0,1.654,1.346,3,3,3s3-1.346,3-3v-9
		C86.848,57.24,85.502,55.895,83.848,55.895z"/>
</g>
<g>
	<path fill="#3021EC" d="M40.348,117.895c-0.829,0-1.5-0.672-1.5-1.5v-22c0-0.828,0.671-1.5,1.5-1.5c0.829,0,1.5,0.672,1.5,1.5v22
		C41.848,117.223,41.177,117.895,40.348,117.895z"/>
</g>
<g>
	<path fill="#3021EC" d="M40.348,83.77c-0.829,0-1.5-0.672-1.5-1.5V17.395c0-0.829,0.671-1.5,1.5-1.5c0.829,0,1.5,0.671,1.5,1.5
		V82.27C41.848,83.098,41.177,83.77,40.348,83.77z"/>
</g>
<g>
	<path fill="#3021EC" d="M40.348,95.895c-4.136,0-7.5-3.363-7.5-7.5c0-4.136,3.364-7.5,7.5-7.5c4.136,0,7.5,3.364,7.5,7.5
		C47.848,92.531,44.484,95.895,40.348,95.895z M40.348,83.895c-2.481,0-4.5,2.02-4.5,4.5c0,2.481,2.019,4.5,4.5,4.5
		s4.5-2.019,4.5-4.5C44.848,85.914,42.83,83.895,40.348,83.895z"/>
</g>
<g>
	<path fill="#3021EC" d="M117.52,115.101c-0.385,0-0.769-0.146-1.062-0.438c-0.586-0.586-0.586-1.535,0-2.121l11.388-11.388
		c0.586-0.586,1.534-0.586,2.12,0c0.586,0.587,0.586,1.535,0,2.121l-11.387,11.388C118.287,114.954,117.902,115.101,117.52,115.101z
		"/>
</g>
<g>
	<path fill="#3021EC" d="M120.085,103.632c-0.384,0-0.769-0.146-1.062-0.439c-0.586-0.586-0.586-1.534,0-2.12l6.906-6.905
		c0.586-0.586,1.534-0.586,2.12,0c0.587,0.586,0.587,1.535,0,2.121l-6.905,6.904C120.854,103.485,120.469,103.632,120.085,103.632z"
		/>
</g>
</svg>
