<?xml version="1.0" encoding="utf-8"?>
<!-- Generator: Adobe Illustrator 16.0.0, SVG Export Plug-In . SVG Version: 6.00 Build 0)  -->
<!DOCTYPE svg PUBLIC "-//W3C//DTD SVG 1.1//EN" "http://www.w3.org/Graphics/SVG/1.1/DTD/svg11.dtd">
<svg version="1.1" id="Layer_150" xmlns="http://www.w3.org/2000/svg" xmlns:xlink="http://www.w3.org/1999/xlink" x="0px" y="0px"
	 width="145.174px" height="154.96px" viewBox="0 0 145.174 154.96" enable-background="new 0 0 145.174 154.96"
	 xml:space="preserve">
<g opacity="0.1">
	<g>
		<path fill="#3021EC" d="M78.577,17.583c-2.043,2.043-2.046,5.349-0.014,7.399h14.828l-7.399-7.399
			C83.942,15.536,80.624,15.537,78.577,17.583z"/>
	</g>
	<g>
		<path fill="#3021EC" d="M36.78,57.354L14.158,34.732c0.001,0,0.001,0.001,0.002,0.002l-3.709-3.71
			c-2.048-2.047-5.368-2.048-7.416,0c-2.048,2.048-2.047,5.368,0,7.415L24.877,60.28c3.478-1.869,7.454-2.931,11.679-2.931
			C36.632,57.349,36.706,57.354,36.78,57.354z"/>
	</g>
	<g>
		<path fill="#3021EC" d="M21.11,4.607c-6.144,6.144-6.143,16.103,0,22.246l0.463,0.463c2.049,2.048,2.049,5.367,0.001,7.415
			c-2.047,2.047-5.365,2.048-7.414,0.003l22.62,22.62c2.13,0.02,4.194,0.307,6.163,0.833c0.235-0.432,0.511-0.846,0.876-1.211
			c2.047-2.046,5.367-2.046,7.414,0l0.001,0.001l3.898,3.898V31.117c0-3.388,2.747-6.134,6.134-6.134h2.466L43.356,4.607
			C37.213-1.536,27.254-1.536,21.11,4.607z"/>
	</g>
	<g>
		<polygon fill="#3021EC" points="43.818,64.392 36.781,57.354 36.78,57.354 		"/>
	</g>
</g>
<g>
	<path fill="#3021EC" d="M99.749,151.037c-0.341,0-0.684-0.115-0.962-0.35l-5.657-4.727H14.674c-0.829,0-1.5-0.672-1.5-1.5
		s0.671-1.5,1.5-1.5h79c0.353,0,0.692,0.123,0.962,0.349l5.049,4.217l4.354-4.151c0.279-0.266,0.648-0.414,1.035-0.414h38.601
		c0.828,0,1.5,0.672,1.5,1.5s-0.672,1.5-1.5,1.5h-38l-4.89,4.662C100.495,150.897,100.122,151.037,99.749,151.037z"/>
</g>
<g>
	<path fill="#3021EC" d="M16.5,154.96h-15c-0.829,0-1.5-0.672-1.5-1.5s0.671-1.5,1.5-1.5h15c0.829,0,1.5,0.672,1.5,1.5
		S17.329,154.96,16.5,154.96z"/>
</g>
<g>
	<path fill="#3021EC" d="M119.538,115.423H61.266c-4.209,0-7.634-3.424-7.634-7.633v-9.457c0-0.828,0.671-1.5,1.5-1.5
		c0.829,0,1.5,0.672,1.5,1.5v9.457c0,2.555,2.079,4.633,4.634,4.633h58.272c2.556,0,4.635-2.078,4.635-4.633V31.117
		c0-2.555-2.079-4.634-4.635-4.634H61.266c-2.555,0-4.634,2.079-4.634,4.634v33.481c0,0.829-0.671,1.5-1.5,1.5
		c-0.829,0-1.5-0.671-1.5-1.5V31.117c0-4.209,3.424-7.634,7.634-7.634h58.272c4.21,0,7.635,3.424,7.635,7.634v76.673
		C127.173,112,123.748,115.423,119.538,115.423z"/>
</g>
<g>
	<path fill="#3021EC" d="M128.739,124.625H70.467c-4.209,0-7.634-3.424-7.634-7.633v-2.046c0-0.827,0.671-1.5,1.5-1.5
		s1.5,0.673,1.5,1.5v2.046c0,2.555,2.079,4.633,4.634,4.633h58.272c2.555,0,4.634-2.078,4.634-4.633V40.317
		c0-2.555-2.079-4.634-4.634-4.634h-2.045c-0.828,0-1.5-0.671-1.5-1.5s0.672-1.5,1.5-1.5h2.045c4.209,0,7.634,3.424,7.634,7.634
		v76.675C136.373,121.201,132.948,124.625,128.739,124.625z"/>
</g>
<g>
	<path fill="#3021EC" d="M98.069,44.884H70.467c-0.828,0-1.5-0.671-1.5-1.5c0-0.829,0.672-1.5,1.5-1.5h27.603
		c0.828,0,1.5,0.671,1.5,1.5C99.569,44.213,98.897,44.884,98.069,44.884z"/>
</g>
<g>
	<path fill="#3021EC" d="M107.271,54.085H70.467c-0.828,0-1.5-0.671-1.5-1.5s0.672-1.5,1.5-1.5h36.804c0.828,0,1.5,0.671,1.5,1.5
		S108.099,54.085,107.271,54.085z"/>
</g>
<g>
	<path fill="#3021EC" d="M98.069,63.286H70.467c-0.828,0-1.5-0.671-1.5-1.5s0.672-1.5,1.5-1.5h27.603c0.828,0,1.5,0.671,1.5,1.5
		S98.897,63.286,98.069,63.286z"/>
</g>
<g opacity="0.6">
	<rect x="70.467" y="70.987" fill="#3021EC" width="36.804" height="18.402"/>
</g>
<g>
	<path fill="#3021EC" d="M36.556,108.269c-14.452,0-26.21-11.758-26.21-26.21c0-14.453,11.758-26.21,26.21-26.21
		c14.452,0,26.209,11.758,26.209,26.21C62.766,96.511,51.008,108.269,36.556,108.269z M36.556,58.849
		c-12.798,0-23.21,10.413-23.21,23.21s10.412,23.21,23.21,23.21c12.798,0,23.209-10.412,23.209-23.21
		C59.765,69.261,49.354,58.849,36.556,58.849z"/>
</g>
<g>
	<path fill="#3021EC" d="M33.301,73.172c-2.46-1.23-4.472,0.014-4.472,2.764v12.422c0,2.75,2.012,3.994,4.472,2.765l13.478-6.738
		c2.46-1.23,2.46-3.242,0-4.473L33.301,73.172z"/>
</g>
<g>
	<path fill="#3021EC" d="M45.758,60.623c-0.829,0-1.5-0.671-1.5-1.5V43.384c0-0.829,0.671-1.5,1.5-1.5c0.829,0,1.5,0.671,1.5,1.5
		v15.738C47.258,59.951,46.586,60.623,45.758,60.623z"/>
</g>
<g>
	<path fill="#3021EC" d="M45.758,40.454c-0.829,0-1.5-0.671-1.5-1.5v-4.77c0-0.829,0.671-1.5,1.5-1.5c0.829,0,1.5,0.671,1.5,1.5
		v4.77C47.258,39.782,46.586,40.454,45.758,40.454z"/>
</g>
<g>
	<path fill="#3021EC" d="M40.04,56.854c-0.829,0-1.5-0.671-1.5-1.5v-6.858c0-0.829,0.671-1.5,1.5-1.5s1.5,0.671,1.5,1.5v6.858
		C41.54,56.183,40.869,56.854,40.04,56.854z"/>
</g>
<g>
	<path fill="#3021EC" d="M128.565,17.282c-0.385,0-0.769-0.146-1.062-0.439c-0.586-0.585-0.586-1.536,0-2.121l9.201-9.201
		c0.586-0.586,1.535-0.586,2.121,0c0.586,0.585,0.586,1.536,0,2.121l-9.201,9.201C129.333,17.135,128.949,17.282,128.565,17.282z"/>
</g>
</svg>
