<?xml version="1.0" encoding="utf-8"?>
<!-- Generator: Adobe Illustrator 16.0.0, SVG Export Plug-In . SVG Version: 6.00 Build 0)  -->
<!DOCTYPE svg PUBLIC "-//W3C//DTD SVG 1.1//EN" "http://www.w3.org/Graphics/SVG/1.1/DTD/svg11.dtd">
<svg version="1.1" id="Layer_150" xmlns="http://www.w3.org/2000/svg" xmlns:xlink="http://www.w3.org/1999/xlink" x="0px" y="0px"
	 width="145.5px" height="145.146px" viewBox="0 0 145.5 145.146" enable-background="new 0 0 145.5 145.146" xml:space="preserve">
<g opacity="0.1">
	<g>
		<path fill="#3021EC" d="M111.604,48.905L90.509,27.763l-2.356,2.001c-0.715,3.402-1.766,6.048-3.03,8.091l17.026,17.063
			C104.346,49.689,109.165,48.93,111.604,48.905z"/>
	</g>
	<g>
		<path fill="#3021EC" d="M143.902,81.275l-10.102-10.124c-1.294,4.623-3.396,7.689-5.789,9.688l8.146,8.163
			c2.133,2.14,5.598,2.144,7.735,0.011C146.032,86.878,146.036,83.414,143.902,81.275z"/>
	</g>
	<g>
		<path fill="#3021EC" d="M3.228,40.983c-2.139,2.134-2.142,5.598-0.008,7.736l9.837,9.859l0.242-2.087l6.39-4.978l2.055,0.281
			L10.965,40.992C8.831,38.854,5.367,38.849,3.228,40.983z"/>
	</g>
	<g>
		<path fill="#3021EC" d="M22.575,37.135c2.135,2.14,2.131,5.604-0.008,7.737c-2.139,2.134-5.603,2.131-7.738-0.008l6.916,6.931
			l13.505,1.851l4.586,4.383l0.831,9.045l-0.602,3.083l-1.11,5.69l-3.881,4.798l2.924,2.931c2.135,2.139,5.597,2.143,7.736,0.008
			c2.14-2.135,2.144-5.597,0.009-7.735c-2.133-2.14-2.129-5.604,0.01-7.738c2.138-2.134,5.601-2.13,7.735,0.008l-7.127-7.144
			L22.575,37.135z"/>
	</g>
	<g>
		<path fill="#3021EC" d="M101.563,69.788c-0.063-0.059-0.138-0.102-0.199-0.164l0.207,0.209
			C101.568,69.818,101.566,69.802,101.563,69.788z"/>
	</g>
	<g>
		<path fill="#3021EC" d="M124.555,85.123c2.139-2.135,5.604-2.131,7.736,0.007l-4.279-4.288c-4.041,3.378-8.875,3.738-11.928,3.536
			l8.462,8.479C122.413,90.719,122.415,87.256,124.555,85.123z"/>
	</g>
	<g>
		<path fill="#3021EC" d="M116.084,84.377c-1.816-0.121-3.004-0.438-3.004-0.438c-7.898-2.113-10.6-9.04-11.51-14.106l-0.209-0.21
			c0,0,0.002,0,0.002,0.001L75.904,44.108c-5.578,0.811-10.795-1.837-10.795-1.837c-4.351-2.197-6.611-9.127-7.756-16.756
			L45.33,13.466c-6.403-6.417-16.795-6.429-23.212-0.025c-6.418,6.403-6.429,16.795-0.025,23.212l24.268,24.322l7.129,7.145
			l-0.001-0.001L74.05,88.724c6.445-1.272,14.966-1.945,16.474,2.922c2.479,8,0.617,13.325,0.617,13.325l-0.266,0.614l13.816,13.849
			c6.402,6.417,16.795,6.43,23.213,0.025c6.416-6.402,6.429-16.796,0.025-23.213L116.084,84.377z"/>
	</g>
	<g>
		<polygon fill="#3021EC" points="21.744,51.796 40.065,70.158 21.745,51.796 		"/>
	</g>
</g>
<g>
	<path fill="#3021EC" d="M143.5,136.146h-34c-0.829,0-1.5-0.671-1.5-1.5s0.671-1.5,1.5-1.5h34c0.829,0,1.5,0.671,1.5,1.5
		S144.329,136.146,143.5,136.146z"/>
</g>
<g>
	<path fill="#3021EC" d="M100,136.146H28.5c-0.829,0-1.5-0.671-1.5-1.5s0.671-1.5,1.5-1.5H100c0.829,0,1.5,0.671,1.5,1.5
		S100.829,136.146,100,136.146z"/>
</g>
<g>
	<path fill="#3021EC" d="M26.5,145.146h-25c-0.829,0-1.5-0.671-1.5-1.5s0.671-1.5,1.5-1.5h25c0.829,0,1.5,0.671,1.5,1.5
		S27.329,145.146,26.5,145.146z"/>
</g>
<g>
	<path fill="#3021EC" d="M73.17,46.146c-9.033,0-16.382-7.35-16.382-16.382v-7.441c0-3.092,1.869-8.941,8.941-8.941h14.882
		c3.093,0,8.94,1.869,8.94,8.941v7.441C89.552,38.797,82.203,46.146,73.17,46.146z M80.604,16.382H65.729
		c-5.874,0-5.941,5.698-5.941,5.941v7.441c0,7.379,6.003,13.382,13.382,13.382s13.382-6.003,13.382-13.382v-7.441
		C86.552,16.601,81.213,16.388,80.604,16.382z"/>
</g>
<g>
	<path fill="#3021EC" d="M87.768,32.676c4.732-3.41,6.07-8.449,6.07-14.072C93.838,8.329,85.498,0,73.17,0
		C60.84,0,52.5,8.329,52.5,18.603c0,5.622,1.34,10.662,6.07,14.071l-0.18-11.433c0,0,0.62-6.322,6.718-6.342l16.835,0.13
		c0,0,6.106-0.148,6.106,7.292L87.768,32.676z"/>
</g>
<g>
	<circle fill="#3021EC" cx="66.607" cy="26.302" r="1.498"/>
	<path fill="#3021EC" d="M66.607,28.301c-1.102,0-1.998-0.896-1.998-1.999c0-1.102,0.896-1.999,1.998-1.999s1.998,0.896,1.998,1.999
		C68.605,27.405,67.708,28.301,66.607,28.301z M66.607,25.302c-0.55,0-0.998,0.448-0.998,0.999c0,0.552,0.448,0.999,0.998,0.999
		c0.55,0,0.998-0.447,0.998-0.999C67.605,25.751,67.157,25.302,66.607,25.302z"/>
</g>
<g>
	<circle fill="#3021EC" cx="79.835" cy="26.302" r="1.499"/>
	<path fill="#3021EC" d="M79.836,28.301c-1.104,0-2-0.896-2-1.999c0-1.102,0.896-1.999,2-1.999c1.102,0,1.998,0.896,1.998,1.999
		C81.834,27.405,80.938,28.301,79.836,28.301z M79.836,25.302c-0.551,0-1,0.448-1,0.999c0,0.552,0.449,0.999,1,0.999
		s0.998-0.447,0.998-0.999C80.834,25.751,80.387,25.302,79.836,25.302z"/>
</g>
<g>
	<path fill="#3021EC" d="M73.393,38.077c-2.312,0-4.328-1.227-5.405-2.278c-0.593-0.579-0.605-1.527-0.026-2.121
		c0.577-0.592,1.522-0.604,2.117-0.03c0.54,0.515,3.364,2.918,6.269,0.018c0.586-0.586,1.534-0.586,2.12,0
		c0.587,0.585,0.587,1.536,0,2.121C76.777,37.474,75.014,38.077,73.393,38.077z"/>
</g>
<g>
	<path fill="#3021EC" d="M117.675,86.087c-9.944,0-18.036-8.091-18.036-18.037v-8.268c0-3.379,2.043-9.769,9.77-9.769h16.535
		c3.38,0,9.77,2.042,9.77,9.769v8.268C135.712,77.996,127.621,86.087,117.675,86.087z M109.407,53.014
		c-6.691,0-6.769,6.491-6.769,6.769v8.268c0,8.292,6.744,15.037,15.035,15.037c8.292,0,15.037-6.746,15.037-15.037v-8.268
		c0-6.691-6.492-6.769-6.77-6.769H109.407z"/>
</g>
<g>
	<circle fill="#3021EC" cx="110.382" cy="64.203" r="1.665"/>
	<path fill="#3021EC" d="M110.383,66.369c-1.193,0-2.165-0.972-2.165-2.166c0-1.193,0.972-2.164,2.165-2.164
		s2.164,0.971,2.164,2.164C112.547,65.397,111.576,66.369,110.383,66.369z M110.383,63.039c-0.643,0-1.165,0.522-1.165,1.164
		c0,0.644,0.522,1.166,1.165,1.166s1.164-0.522,1.164-1.166C111.547,63.561,111.025,63.039,110.383,63.039z"/>
</g>
<g>
	<circle fill="#3021EC" cx="125.081" cy="64.203" r="1.666"/>
	<path fill="#3021EC" d="M125.082,66.369c-1.195,0-2.167-0.972-2.167-2.166c0-1.193,0.972-2.164,2.167-2.164
		c1.193,0,2.165,0.971,2.165,2.164C127.247,65.397,126.275,66.369,125.082,66.369z M125.082,63.039
		c-0.645,0-1.167,0.522-1.167,1.164c0,0.644,0.522,1.166,1.167,1.166c0.643,0,1.165-0.522,1.165-1.166
		C126.247,63.561,125.725,63.039,125.082,63.039z"/>
</g>
<g>
	<path fill="#3021EC" d="M117.92,77.117c-2.518,0-4.713-1.337-5.887-2.481c-0.594-0.577-0.605-1.527-0.026-2.12
		c0.577-0.592,1.522-0.605,2.116-0.031c0.381,0.363,3.79,3.428,7.199,0.018c0.586-0.586,1.535-0.586,2.121,0
		c0.586,0.585,0.586,1.535,0,2.121C121.605,76.461,119.684,77.117,117.92,77.117z"/>
</g>
<g>
	<path fill="#3021EC" d="M99.5,61.43v-7.07c0,0,0-7.068,7.068-7.068c0,0,0-7.067,7.068-7.067h22.166c0,0,5.234,3.142,0,6.807
		c0,0-4.188,3.375-0.594,9.846c0,0-6.71-7.429-14.62-5.032C120.59,51.844,102.376,47.29,99.5,61.43z"/>
</g>
<g>
	<path fill="#3021EC" d="M26.109,85.052c-8.854,0-16.057-7.203-16.057-16.058v-7.278c0-3.036,1.834-8.778,8.778-8.778h14.558
		c3.037,0,8.779,1.835,8.779,8.778v7.278C42.167,77.849,34.963,85.052,26.109,85.052z M33.381,55.937H18.83
		c-5.564,0-5.773,5.193-5.778,5.786v7.271c0,7.2,5.857,13.058,13.057,13.058c7.2,0,13.058-5.856,13.058-13.058v-7.278
		C39.167,56.151,33.973,55.942,33.381,55.937z"/>
</g>
<g>
	<circle fill="#3021EC" cx="19.689" cy="65.608" r="1.465"/>
	<path fill="#3021EC" d="M19.689,67.575c-1.083,0-1.965-0.882-1.965-1.967c0-1.084,0.882-1.966,1.965-1.966s1.965,0.882,1.965,1.966
		S20.772,67.575,19.689,67.575z M19.689,64.642c-0.532,0-0.965,0.433-0.965,0.966s0.433,0.967,0.965,0.967
		c0.532,0,0.965-0.434,0.965-0.967S20.221,64.642,19.689,64.642z"/>
</g>
<g>
	<circle fill="#3021EC" cx="32.629" cy="65.608" r="1.466"/>
	<path fill="#3021EC" d="M32.629,67.575c-1.084,0-1.967-0.882-1.967-1.967c0-1.084,0.882-1.966,1.967-1.966
		c1.083,0,1.965,0.882,1.965,1.966C34.595,66.692,33.713,67.575,32.629,67.575z M32.629,64.642c-0.533,0-0.967,0.433-0.967,0.966
		s0.434,0.967,0.967,0.967c0.532,0,0.965-0.434,0.965-0.967C33.595,65.075,33.162,64.642,32.629,64.642z"/>
</g>
<g>
	<path fill="#3021EC" d="M26.328,77.159c-2.271,0-4.253-1.206-5.312-2.238c-0.593-0.578-0.605-1.527-0.026-2.121
		c0.577-0.591,1.522-0.604,2.116-0.031c0.523,0.5,3.268,2.834,6.086,0.019c0.586-0.586,1.535-0.586,2.121,0s0.586,1.536,0,2.121
		C29.654,76.567,27.92,77.159,26.328,77.159z"/>
</g>
<g>
	<path fill="#3021EC" d="M18.759,54.437c-6.54,1.557-6.329,2.821-8.439,5.986l0.844-12.869c0,0,0-3.587,5.485-5.696l8.791-3.798
		c0,0,5.451,0-0.984,7.596l9.017-6.752c0,0,8.283-5.063,1.688,9.705l3.853-4.853c0,0,8.333-7.174,2.848,17.194
		c0,0-1.803-7.227-11.608-6.515L18.759,54.437L18.759,54.437z"/>
</g>
<g>
	<path fill="#3021EC" d="M74.434,126.302c-9.699,0-17.588-7.89-17.588-17.588v-8.045c0-3.301,1.995-9.544,9.544-9.544h16.087
		c3.301,0,9.545,1.995,9.545,9.544v8.045C92.021,118.413,84.131,126.302,74.434,126.302z M82.471,94.125H66.389
		c-6.47,0-6.544,6.277-6.544,6.544v8.045c0,8.044,6.544,14.588,14.588,14.588c8.043,0,14.588-6.544,14.588-14.588v-8.045
		C89.021,94.362,83.141,94.131,82.471,94.125z"/>
</g>
<g>
	<circle fill="#3021EC" cx="67.337" cy="104.97" r="1.62"/>
	<path fill="#3021EC" d="M67.338,107.091c-1.169,0-2.12-0.951-2.12-2.121c0-1.168,0.951-2.118,2.12-2.118
		c1.168,0,2.119,0.95,2.119,2.118C69.457,106.14,68.506,107.091,67.338,107.091z M67.338,103.851c-0.618,0-1.12,0.502-1.12,1.118
		c0,0.618,0.502,1.121,1.12,1.121c0.617,0,1.119-0.503,1.119-1.121C68.457,104.353,67.955,103.851,67.338,103.851z"/>
</g>
<g>
	<circle fill="#3021EC" cx="81.639" cy="104.97" r="1.62"/>
	<path fill="#3021EC" d="M81.639,107.091c-1.168,0-2.121-0.951-2.121-2.121c0-1.168,0.953-2.118,2.121-2.118s2.119,0.95,2.119,2.118
		C83.758,106.14,82.807,107.091,81.639,107.091z M81.639,103.851c-0.617,0-1.121,0.502-1.121,1.118c0,0.618,0.504,1.121,1.121,1.121
		s1.119-0.503,1.119-1.121C82.758,104.353,82.256,103.851,81.639,103.851z"/>
</g>
<g>
	<path fill="#3021EC" d="M74.671,117.577c-2.461,0-4.608-1.307-5.756-2.426c-0.593-0.579-0.605-1.528-0.026-2.121
		c0.577-0.591,1.522-0.604,2.116-0.032c0.365,0.351,3.657,3.309,6.946,0.02c0.585-0.586,1.535-0.586,2.121,0
		c0.586,0.585,0.586,1.534,0,2.121C78.275,116.935,76.396,117.577,74.671,117.577z"/>
</g>
<g>
	<path fill="#3021EC" d="M81.639,87.175c0,0,7.756-4.722,11.951,2.04c0,0,5.131,8.313-2.098,21.686c0,0-1.166,3.177-1.281,0.962
		c0,0,5.123-19.262-8.572-19.905C81.639,91.957,77.848,91.897,81.639,87.175z"/>
</g>
<g>
	<path fill="#3021EC" d="M59.264,105.683c0,0-3.446-9.939,3.315-11.339l17.438-0.786l6.463-7.938
		c1.002,0.869-19.413-13.076-29.498,0.273c-3.017,3.994-5.596,11.947,0.699,20.01L59.264,105.683z"/>
</g>
<g>
	<path fill="#3021EC" d="M73.5,64.146h-9c-0.829,0-1.5-0.671-1.5-1.5s0.671-1.5,1.5-1.5H72v-7.5c0-0.829,0.671-1.5,1.5-1.5
		s1.5,0.671,1.5,1.5v9C75,63.475,74.329,64.146,73.5,64.146z"/>
</g>
<g>
	<path fill="#3021EC" d="M73.5,73.146c-0.829,0-1.5-0.671-1.5-1.5v-9c0-0.829,0.671-1.5,1.5-1.5h9c0.829,0,1.5,0.671,1.5,1.5
		s-0.671,1.5-1.5,1.5H75v7.5C75,72.475,74.329,73.146,73.5,73.146z"/>
</g>
<g>
	<path fill="#3021EC" d="M121.883,14.763c-0.384,0-0.768-0.146-1.061-0.439c-0.586-0.585-0.586-1.536,0-2.121l4.617-4.617
		c0.586-0.586,1.535-0.586,2.121,0c0.586,0.585,0.586,1.536,0,2.121l-4.617,4.617C122.65,14.617,122.268,14.763,121.883,14.763z"/>
</g>
</svg>
