<?xml version="1.0" encoding="utf-8"?>
<!-- Generator: Adobe Illustrator 16.0.0, SVG Export Plug-In . SVG Version: 6.00 Build 0)  -->
<!DOCTYPE svg PUBLIC "-//W3C//DTD SVG 1.1//EN" "http://www.w3.org/Graphics/SVG/1.1/DTD/svg11.dtd">
<svg version="1.1" id="Layer_150" xmlns="http://www.w3.org/2000/svg" xmlns:xlink="http://www.w3.org/1999/xlink" x="0px" y="0px"
	 width="145px" height="155.027px" viewBox="0 0 145 155.027" enable-background="new 0 0 145 155.027" xml:space="preserve">
<g>
	<path fill="#3021EC" d="M143.5,146.027H91.674c-0.398,0-0.779-0.158-1.061-0.439c-1.297-1.298-2.605-1.93-3.875-1.874
		c-1.967,0.084-3.398,1.756-3.412,1.773c-0.285,0.338-0.71,0.54-1.153,0.54H9.167c-0.829,0-1.5-0.672-1.5-1.5s0.671-1.5,1.5-1.5
		h72.371c0.839-0.798,2.637-2.192,5.035-2.31c1.979-0.089,3.903,0.68,5.7,2.31H143.5c0.829,0,1.5,0.672,1.5,1.5
		S144.329,146.027,143.5,146.027z"/>
</g>
<g>
	<path fill="#3021EC" d="M26.5,155.027h-25c-0.829,0-1.5-0.672-1.5-1.5s0.671-1.5,1.5-1.5h25c0.829,0,1.5,0.672,1.5,1.5
		S27.329,155.027,26.5,155.027z"/>
</g>
<g>
	<g>
		<path fill="#3021EC" d="M109.508,118.657c-2.341,0-4.811-1.009-6.775-2.767c-1.764-1.579-2.965-3.605-3.385-5.706
			c-0.455-2.277,0.074-4.469,1.454-6.008c1.234-1.38,3.038-2.14,5.077-2.14c2.342,0,4.811,1.009,6.775,2.768
			c3.802,3.4,4.668,8.654,1.933,11.713C113.352,117.897,111.547,118.657,109.508,118.657z M105.879,106.038
			c-0.627,0-1.5,0.142-2.097,0.809c-0.728,0.813-0.634,1.949-0.513,2.556c0.248,1.239,1.024,2.518,2.131,3.509
			c1.24,1.11,2.738,1.747,4.107,1.747c0.627,0,1.5-0.14,2.098-0.808c1.244-1.39,0.502-4.166-1.619-6.064
			C108.747,106.675,107.249,106.038,105.879,106.038z"/>
	</g>
	<g>
		<path fill="#3021EC" d="M104.066,116.4c-0.482,0-0.967-0.173-1.351-0.524L81.313,96.297c-0.815-0.745-0.871-2.011-0.125-2.824
			c0.746-0.814,2.012-0.871,2.826-0.126l21.404,19.578c0.814,0.745,0.871,2.012,0.125,2.825
			C105.148,116.182,104.607,116.4,104.066,116.4z"/>
	</g>
</g>
<g>
	<path fill="#3021EC" d="M126.348,95.771h-27.82c-0.676,0-1.27-0.452-1.447-1.105L90.813,71.7c-0.219-0.799,0.252-1.623,1.051-1.842
		c0.8-0.222,1.625,0.253,1.843,1.053l5.966,21.86h26.676c3.041,0,5.514-2.474,5.514-5.514V35.54c0-3.04-2.473-5.513-5.514-5.513h-90
		c-3.039,0-5.512,2.473-5.512,5.513v15.862c0,0.828-0.671,1.5-1.5,1.5s-1.5-0.672-1.5-1.5V35.54c0-4.693,3.818-8.513,8.512-8.513h90
		c4.694,0,8.514,3.817,8.514,8.513v51.718C134.861,91.952,131.042,95.771,126.348,95.771z"/>
</g>
<g>
	<path fill="#3021EC" d="M88.007,95.771H36.348c-4.693,0-8.512-3.818-8.512-8.514c0-0.827,0.671-1.5,1.5-1.5s1.5,0.673,1.5,1.5
		c0,3.04,2.473,5.514,5.512,5.514h51.659c0.829,0,1.5,0.672,1.5,1.5S88.836,95.771,88.007,95.771z"/>
</g>
<g>
	<g>
		<path fill="#3021EC" d="M90.23,128.527c-3.584,0-6.864-2.996-7.977-7.285c-1.279-4.938,0.91-9.793,4.878-10.821
			c0.505-0.131,1.024-0.196,1.546-0.196c3.584,0,6.864,2.995,7.977,7.284c0.595,2.291,0.474,4.645-0.34,6.625
			c-0.883,2.148-2.537,3.679-4.539,4.196C91.271,128.461,90.752,128.527,90.23,128.527z M88.68,114.224
			c-0.185,0-0.367,0.022-0.543,0.067c-1.803,0.468-2.724,3.191-2.01,5.946c0.723,2.786,2.652,4.289,4.104,4.289
			c0.185,0,0.367-0.023,0.543-0.068c1.056-0.273,1.607-1.273,1.843-1.846c0.479-1.169,0.542-2.663,0.169-4.101
			C92.061,115.727,90.129,114.224,88.68,114.224z"/>
	</g>
	<g>
		<path fill="#3021EC" d="M94.718,120.012c-0.881,0-1.688-0.588-1.93-1.479L79.38,69.031c-0.289-1.065,0.343-2.164,1.408-2.453
			c1.069-0.284,2.165,0.342,2.454,1.408l13.408,49.502c0.289,1.064-0.342,2.164-1.408,2.453
			C95.066,119.988,94.891,120.012,94.718,120.012z"/>
	</g>
</g>
<g opacity="0.6">
	<path fill="#3021EC" d="M49.348,43.527c0,1.104-0.896,2-2,2h-5c-1.104,0-2-0.896-2-2v-5c0-1.104,0.896-2,2-2h5c1.104,0,2,0.896,2,2
		V43.527z"/>
</g>
<g opacity="0.6">
	<path fill="#3021EC" d="M67.348,43.527c0,1.104-0.896,2-2,2h-5c-1.104,0-2-0.896-2-2v-5c0-1.104,0.896-2,2-2h5c1.104,0,2,0.896,2,2
		V43.527z"/>
</g>
<g opacity="0.6">
	<path fill="#3021EC" d="M85.348,43.527c0,1.104-0.896,2-2,2h-5c-1.104,0-2-0.896-2-2v-5c0-1.104,0.896-2,2-2h5c1.104,0,2,0.896,2,2
		V43.527z"/>
</g>
<g opacity="0.6">
	<path fill="#3021EC" d="M103.348,43.527c0,1.104-0.896,2-2,2h-5c-1.104,0-2-0.896-2-2v-5c0-1.104,0.896-2,2-2h5
		c1.104,0,2,0.896,2,2V43.527z"/>
</g>
<g opacity="0.6">
	<path fill="#3021EC" d="M121.348,43.527c0,1.104-0.896,2-2,2h-5c-1.104,0-2-0.896-2-2v-5c0-1.104,0.896-2,2-2h5
		c1.104,0,2,0.896,2,2V43.527z"/>
</g>
<g opacity="0.6">
	<path fill="#3021EC" d="M67.348,84.527c0,1.104-0.896,2-2,2h-5c-1.104,0-2-0.896-2-2v-5c0-1.104,0.896-2,2-2h5c1.104,0,2,0.896,2,2
		V84.527z"/>
</g>
<g opacity="0.6">
	<path fill="#3021EC" d="M85.348,84.527c0,1.104-0.896,2-2,2h-5c-1.104,0-2-0.896-2-2v-5c0-1.104,0.896-2,2-2h5c1.104,0,2,0.896,2,2
		V84.527z"/>
</g>
<g opacity="0.6">
	<path fill="#3021EC" d="M103.348,84.527c0,1.104-0.896,2-2,2h-5c-1.104,0-2-0.896-2-2v-5c0-1.104,0.896-2,2-2h5
		c1.104,0,2,0.896,2,2V84.527z"/>
</g>
<g opacity="0.6">
	<path fill="#3021EC" d="M121.348,84.527c0,1.104-0.896,2-2,2h-5c-1.104,0-2-0.896-2-2v-5c0-1.104,0.896-2,2-2h5
		c1.104,0,2,0.896,2,2V84.527z"/>
</g>
<g>
	<path fill="#3021EC" d="M27.312,88.326c-10.281,0-18.645-8.364-18.645-18.646c0-10.282,8.364-18.646,18.645-18.646
		c10.282,0,18.646,8.365,18.646,18.646C45.958,79.961,37.594,88.326,27.312,88.326z M27.312,54.034
		c-8.626,0-15.645,7.019-15.645,15.646c0,8.627,7.019,15.646,15.645,15.646c8.627,0,15.646-7.019,15.646-15.646
		C42.958,61.052,35.939,54.034,27.312,54.034z"/>
</g>
<g>
	<path fill="#3021EC" d="M26.423,64.199c-2.459-1.23-4.472,0.014-4.472,2.764v5.559c0,2.75,2.012,3.994,4.472,2.764l6.613-3.307
		c2.46-1.23,2.459-3.243,0-4.473L26.423,64.199z"/>
</g>
<g>
	<path fill="#3021EC" d="M17.174,25.5c-0.384,0-0.768-0.146-1.061-0.438l-5.647-5.646c-0.281-0.281-0.439-0.663-0.439-1.061
		c0-0.398,0.158-0.779,0.439-1.062l5.647-5.646c0.586-0.586,1.535-0.586,2.121,0l5.646,5.646c0.586,0.586,0.586,1.535,0,2.121
		l-5.646,5.646C17.942,25.354,17.558,25.5,17.174,25.5z M13.649,18.354l3.525,3.524l3.525-3.524l-3.525-3.525L13.649,18.354z"/>
</g>
<g opacity="0.1">
	<g>
		<path fill="#3021EC" d="M88.232,12.348l3.24-3.98c1.787-2.196,1.457-5.427-0.74-7.215c-2.195-1.789-5.428-1.457-7.215,0.738
			L62.646,27.527h13.227l12.359-15.183V12.348z"/>
	</g>
	<g>
		<path fill="#3021EC" d="M88.063,94.527h-0.598l-25.43,31.236v-0.001l-3.239,3.979c-1.788,2.196-1.458,5.427,0.739,7.216
			c2.196,1.788,5.426,1.456,7.214-0.74l26.051-32C89.99,101.527,88.635,97.064,88.063,94.527z"/>
	</g>
	<g>
		<path fill="#3021EC" d="M87.357,94.527c-1.846,1.645-4.655,1.769-6.637,0.156c-0.059-0.049-0.101-0.106-0.156-0.156h-6.328H34.554
			l-4.745,5.828c-5.365,6.59-4.373,16.28,2.218,21.646c6.59,5.365,16.282,4.372,21.647-2.219l12.375-15.2l-11.97,14.704
			c1.789-2.197,5.018-2.529,7.214-0.741c2.197,1.789,2.529,5.021,0.741,7.217l25.43-31.235H87.357z"/>
	</g>
	<g>
		<path fill="#3021EC" d="M88.973,19.561c-2.195-1.789-2.527-5.019-0.74-7.213l-12.358,15.18H89.1l7.086-8.705
			C94.4,21.017,91.17,21.35,88.973,19.561z"/>
	</g>
	<g>
		<path fill="#3021EC" d="M120.669,13.122c-6.591-5.366-16.282-4.372-21.647,2.218l-2.834,3.482l0,0L89.1,27.527h37.03
			C126.98,22.273,125.093,16.724,120.669,13.122z"/>
	</g>
</g>
</svg>
